<mxfile modified="2024-01-16T15:37:52.802Z" host="app.diagrams.net" agent="Mozilla/5.0 (Windows NT 10.0; Win64; x64) AppleWebKit/537.36 (KHTML, like Gecko) Chrome/120.0.0.0 Safari/537.36 Edg/120.0.0.0" etag="NZ_giMtdJcpL5NDoMK-X" version="22.1.19" type="google" pages="3">
  <diagram id="Ht1M8jgEwFfnCIfOTk4-" name="Lambda">
    <mxGraphModel grid="0" page="1" gridSize="10" guides="1" tooltips="1" connect="1" arrows="1" fold="1" pageScale="1" pageWidth="827" pageHeight="1169" math="0" shadow="0">
      <root>
        <mxCell id="0" />
        <mxCell id="1" parent="0" />
        <mxCell id="cDmKDJGBwvNcEjtQ1AJh-6" value="" style="rounded=1;whiteSpace=wrap;html=1;dashed=1;strokeWidth=2;" vertex="1" parent="1">
          <mxGeometry x="1220" y="290" width="311" height="197" as="geometry" />
        </mxCell>
        <mxCell id="7rSPsnoB-rRMLJDSAHkc-20" style="edgeStyle=orthogonalEdgeStyle;shape=flexArrow;rounded=0;orthogonalLoop=1;jettySize=auto;html=1;startArrow=block;width=9.2;endSize=2.496;" edge="1" parent="1">
          <mxGeometry relative="1" as="geometry">
            <mxPoint x="155.5" y="243.79999999999995" as="sourcePoint" />
            <mxPoint x="229" y="290" as="targetPoint" />
            <Array as="points">
              <mxPoint x="192" y="244" />
              <mxPoint x="192" y="290" />
            </Array>
          </mxGeometry>
        </mxCell>
        <mxCell id="7rSPsnoB-rRMLJDSAHkc-2" value="&lt;span style=&quot;font-size: 18px;&quot;&gt;&lt;b&gt;IoT&lt;br&gt;&lt;/b&gt;&lt;/span&gt;&lt;font style=&quot;font-size: 18px;&quot;&gt;&lt;b&gt;Platform&lt;/b&gt;&lt;/font&gt;" style="rounded=1;whiteSpace=wrap;html=1;strokeWidth=3;" vertex="1" parent="1">
          <mxGeometry x="59" y="196.75" width="96.5" height="90" as="geometry" />
        </mxCell>
        <mxCell id="7rSPsnoB-rRMLJDSAHkc-23" style="edgeStyle=orthogonalEdgeStyle;shape=flexArrow;rounded=0;orthogonalLoop=1;jettySize=auto;html=1;startArrow=block;" edge="1" parent="1">
          <mxGeometry relative="1" as="geometry">
            <Array as="points">
              <mxPoint x="1501" y="345" />
              <mxPoint x="1501" y="345" />
            </Array>
            <mxPoint x="1218" y="344.8000000000002" as="sourcePoint" />
            <mxPoint x="1531" y="345" as="targetPoint" />
          </mxGeometry>
        </mxCell>
        <mxCell id="7rSPsnoB-rRMLJDSAHkc-3" value="" style="rounded=1;whiteSpace=wrap;html=1;arcSize=11;strokeWidth=4;" vertex="1" parent="1">
          <mxGeometry x="229" y="139.5" width="405" height="308.5" as="geometry" />
        </mxCell>
        <mxCell id="7rSPsnoB-rRMLJDSAHkc-4" value="&lt;font style=&quot;font-size: 18px&quot;&gt;&lt;b&gt;Conference Room&lt;/b&gt;&lt;/font&gt;" style="text;html=1;resizable=0;autosize=1;align=center;verticalAlign=middle;points=[];fillColor=none;strokeColor=none;rounded=0;" vertex="1" parent="1">
          <mxGeometry x="251" y="151" width="173" height="34" as="geometry" />
        </mxCell>
        <mxCell id="7rSPsnoB-rRMLJDSAHkc-24" value="&lt;font style=&quot;font-size: 18px&quot;&gt;&lt;b&gt;Socket.IO Communication&lt;/b&gt;&lt;/font&gt;" style="text;html=1;resizable=0;autosize=1;align=center;verticalAlign=middle;points=[];fillColor=none;strokeColor=none;rounded=0;" vertex="1" parent="1">
          <mxGeometry x="1261" y="456.5" width="240" height="20" as="geometry" />
        </mxCell>
        <mxCell id="7rSPsnoB-rRMLJDSAHkc-25" value="&lt;font style=&quot;font-size: 18px&quot;&gt;&lt;b&gt;Data Request&amp;nbsp;&lt;/b&gt;&lt;/font&gt;" style="text;html=1;resizable=0;autosize=1;align=center;verticalAlign=middle;points=[];fillColor=none;strokeColor=none;rounded=0;" vertex="1" parent="1">
          <mxGeometry x="1301" y="354.75" width="140" height="20" as="geometry" />
        </mxCell>
        <mxCell id="7rSPsnoB-rRMLJDSAHkc-27" value="&lt;b&gt;&lt;font style=&quot;font-size: 18px&quot;&gt;Data Response&lt;br&gt;&lt;/font&gt;&lt;span style=&quot;font-size: 18px&quot;&gt;(Chart or Measurement)&lt;/span&gt;&lt;/b&gt;" style="text;html=1;resizable=0;autosize=1;align=center;verticalAlign=middle;points=[];fillColor=none;strokeColor=none;rounded=0;" vertex="1" parent="1">
          <mxGeometry x="1261" y="296.5" width="220" height="40" as="geometry" />
        </mxCell>
        <mxCell id="7rSPsnoB-rRMLJDSAHkc-30" value="" style="aspect=fixed;html=1;points=[];align=center;image;fontSize=12;image=img/lib/mscae/Database_General.svg;strokeWidth=1;imageBackground=#ffffff;" vertex="1" parent="1">
          <mxGeometry x="835" y="500" width="67.26" height="88.5" as="geometry" />
        </mxCell>
        <mxCell id="dN-FYYo8O3EY4eesyfjz-2" style="edgeStyle=orthogonalEdgeStyle;shape=flexArrow;rounded=0;orthogonalLoop=1;jettySize=auto;html=1;entryX=0.5;entryY=1;entryDx=0;entryDy=0;startArrow=block;" edge="1" parent="1" source="dN-FYYo8O3EY4eesyfjz-1" target="7rSPsnoB-rRMLJDSAHkc-2">
          <mxGeometry relative="1" as="geometry" />
        </mxCell>
        <mxCell id="dN-FYYo8O3EY4eesyfjz-1" value="&lt;font style=&quot;font-size: 18px&quot;&gt;&lt;b&gt;IoT&lt;/b&gt;&lt;/font&gt;" style="rounded=1;whiteSpace=wrap;html=1;strokeWidth=3;" vertex="1" parent="1">
          <mxGeometry x="64.13" y="364" width="86.25" height="60" as="geometry" />
        </mxCell>
        <mxCell id="2n64mLKsOQMoTr5r_ENE-2" value="&lt;font style=&quot;font-size: 16px&quot;&gt;&lt;b&gt;Controller Settings&lt;/b&gt;&lt;/font&gt;" style="rounded=1;whiteSpace=wrap;html=1;strokeWidth=2;" vertex="1" parent="1">
          <mxGeometry x="938" y="542" width="150" height="43" as="geometry" />
        </mxCell>
        <mxCell id="2n64mLKsOQMoTr5r_ENE-4" value="&lt;font style=&quot;font-size: 14px&quot;&gt;Current User Controller&lt;/font&gt;" style="rounded=1;whiteSpace=wrap;html=1;strokeWidth=3;" vertex="1" parent="1">
          <mxGeometry x="877" y="833" width="143.5" height="43" as="geometry" />
        </mxCell>
        <mxCell id="2n64mLKsOQMoTr5r_ENE-5" value="&lt;font style=&quot;font-size: 16px&quot;&gt;&lt;b&gt;Current User Controller&lt;/b&gt;&lt;/font&gt;" style="rounded=1;whiteSpace=wrap;html=1;strokeWidth=2;" vertex="1" parent="1">
          <mxGeometry x="829" y="669" width="150" height="43" as="geometry" />
        </mxCell>
        <mxCell id="cDmKDJGBwvNcEjtQ1AJh-1" style="edgeStyle=orthogonalEdgeStyle;shape=flexArrow;rounded=0;orthogonalLoop=1;jettySize=auto;html=1;startArrow=block;startFill=0;endArrow=none;endFill=0;strokeWidth=1;" edge="1" parent="1">
          <mxGeometry relative="1" as="geometry">
            <Array as="points">
              <mxPoint x="1501" y="427" />
              <mxPoint x="1501" y="427" />
            </Array>
            <mxPoint x="1218.65" y="426.75000000000017" as="sourcePoint" />
            <mxPoint x="1531" y="427" as="targetPoint" />
          </mxGeometry>
        </mxCell>
        <mxCell id="cDmKDJGBwvNcEjtQ1AJh-3" value="&lt;span style=&quot;font-size: 18px&quot;&gt;&lt;b&gt;Control Commands&lt;/b&gt;&lt;/span&gt;" style="text;html=1;resizable=0;autosize=1;align=center;verticalAlign=middle;points=[];fillColor=none;strokeColor=none;rounded=0;" vertex="1" parent="1">
          <mxGeometry x="1281" y="397" width="180" height="20" as="geometry" />
        </mxCell>
        <mxCell id="srysTOEtSGEdbGvHmPmQ-1" value="&lt;b style=&quot;font-weight:normal;&quot; id=&quot;docs-internal-guid-2e92c237-7fff-b0be-1b8b-1762cc921633&quot;&gt;&lt;span style=&quot;font-size: 11pt; font-family: Arial, sans-serif; color: rgb(0, 0, 0); background-color: transparent; font-weight: 400; font-style: normal; font-variant: normal; text-decoration: none; vertical-align: baseline;&quot;&gt;&lt;span style=&quot;border:none;display:inline-block;overflow:hidden;width:624px;height:328px;&quot;&gt;&lt;img src=&quot;https://lh7-us.googleusercontent.com/pWj2gJHrlGFAh8vtzR5gEqLXXdXlbSO0vPuNTH6GLyT7S-RRufxRRv-Dob_99ALNkHzUn2f66t9x259rkSPo2kbNmCWDvggpaaaHIQlVUofOwIVPUJsGmwZJ9BZhvEfhCO_tOkDkG34ki7_a9VMOtys&quot; width=&quot;624&quot; height=&quot;328&quot; style=&quot;margin-left:0px;margin-top:0px;&quot;&gt;&lt;/span&gt;&lt;/span&gt;&lt;/b&gt;" style="text;whiteSpace=wrap;html=1;" vertex="1" parent="1">
          <mxGeometry x="115.99781250000001" y="622.00171875" width="550" height="354" as="geometry" />
        </mxCell>
        <mxCell id="srysTOEtSGEdbGvHmPmQ-2" value="" style="group" connectable="0" vertex="1" parent="1">
          <mxGeometry x="1000" y="227.75" width="94.1099999999999" height="179.03999999999996" as="geometry" />
        </mxCell>
        <mxCell id="7rSPsnoB-rRMLJDSAHkc-14" value="" style="outlineConnect=0;fontColor=#232F3E;gradientColor=none;fillColor=#232F3E;strokeColor=none;dashed=0;verticalLabelPosition=bottom;verticalAlign=top;align=center;html=1;fontSize=12;fontStyle=0;aspect=fixed;pointerEvents=1;shape=mxgraph.aws4.mobile_client;" vertex="1" parent="srysTOEtSGEdbGvHmPmQ-2">
          <mxGeometry width="94.11" height="179.04" as="geometry" />
        </mxCell>
        <mxCell id="BOl-iiIrB3F1Rvzi0rFP-1" value="&lt;font style=&quot;font-size: 18px;&quot;&gt;&lt;b&gt;Coretex&lt;br&gt;APP&lt;/b&gt;&lt;/font&gt;" style="text;html=1;resizable=0;autosize=1;align=center;verticalAlign=middle;points=[];fillColor=none;strokeColor=none;rounded=0;" vertex="1" parent="srysTOEtSGEdbGvHmPmQ-2">
          <mxGeometry x="2" y="62.25" width="85" height="55" as="geometry" />
        </mxCell>
        <mxCell id="srysTOEtSGEdbGvHmPmQ-4" value="" style="shape=image;verticalLabelPosition=bottom;labelBackgroundColor=default;verticalAlign=top;aspect=fixed;imageAspect=0;image=data:image/png,iVBORw0KGgoAAAANSUhEUgAAAcUAAAHDCAYAAABVmAGZAAAAAXNSR0IArs4c6QAAAARnQU1BAACxjwv8YQUAAAAJcEhZcwAADsMAAA7DAcdvqGQAAJXASURBVHhe7Z0FYBRXF4VP3IUECO7u1uJFC7SlXupGvX/dS516S40adXeFFmihUKBQKO7ulpCEuG1W/3fezoRNSCCygcj96Gt2x2d3ds7c++69z8elgCAIgiBUQa677jp8/O6rxrvKx9f4KwiCIAi1HhFFQRAEQTAQURQEQRAEAxFFQRAEQTAQURQEQRAEAxFFQRAEQTAQURQEQRAEAxFFQRAEQTAQURQEQRAEAxFFQRAEQTAQURQEQRAEAxFFQRAEQTAQURQEQRAEAxFFQRAEQTAQURQEQRAEAxFFQRAEQTAQURQEQRAEAxFFQRAEQTAQURQEQRAEAxFFQRAEQTAQURQEQRAEAxFFQfAChw4dwscff4zffvsNubm5xtTSsXv3bkydOhXx8fHGFO/y33//YcaMGcjPzzemCIJQEiKKglBBXC4XvvnmG9x///144oknsHnzZj2ttKxZswaTJk3C1q1by7Reafnll1/w9ttvIzs725giCEJJiCgKQgVJT0/H3LlzcdFFF6Fhw4ZYvny5Mad0BAcHo06dOoiOjjameJfIyEi97aioKGOKIAglIaIoCBWEll5CQgIuueQS9OjRA//++y+ysrKMuUd46aWX0LdvX/Tu3Rv9+/fHe++9h3Xr1mHy5Mn4+++/cdlll6FPnz648847kZSUhJdffllbeA6Hw9gC8NNPP+Hxxx9HYmKifk+37Q033IBTTjlFt65du+KRRx5BZmamnv/999/j008/xZ9//qm3PWDAALzzzjtwOp2w2+16+zyWnj174oorrtDbM+Hrp556Su+T63D9W2+9FSkpKcYSglDzEFEUhApCK7F169Y49dRTdaMbdPHixQWuUIvFgttvv10v9/zzz2uRevjhh7F3715tIV544YVazB544AF89NFHuOuuuxAWFob169dj06ZNhVyq7H9ctWoV8vLy9PucnBwtcG+88Ybu03z99dexbNkyLYx0l5555pk4/fTT0atXL73Mu+++q/fHfk+K7+zZs/Hss89q9y8tyltuuUULPLFarZg1axbuuece+Pv762O799579XKCUFMRURSECkCraenSpdraioiIQLdu3fRfBreYYvbXX39pIZs4cSKGDx+ulxk7dqy2+Jo2bapdrjExMejUqZO2NCmwAQEBBc3Hx0dvh/j5+SEwMLBgWsuWLbW1N3DgQL3dkSNHYsiQITh48CCSk5P1sXD7sbGx2kLl9hs0aKCPb/v27bjpppv0MXXs2FELdlBQEN566y0ttGz16tXTQjl+/Hi9btu2bfUxCUJNRURRECoAxS41NRWnnXaaFqpGjRqhffv22h1qWlx0p1K8unTpUiBmFLfQ0FD9muJJAbLZbPp9WeD2aHGOGjUKdevWRVxcnLb89u3bp61IYgqcuX3+pSiaIm4eE63WFi1aYOfOndpKJL6+vrovkpaiINQGRBQFoQJQ/BjEwn6/LVu2aDFq3rw5MjIydBQqoSBRXMpKaSJRv/jiC/Tr10/3FbIfkn2NL774IsLDw/V+S4LzKIamIJpQ1Gn90r1qzjvWdgShpiGiKAjl5MCBAzrSlEJIN+TFF1+s2+eff66tRPbtUVAoUOwDLEnkzOm0Hk0oSHSTMhjGcz3TnUqRZV8l8yIZIMNUEFN4zb/mevzLaeZ0rs8+Swq5aRGa7Nq1S1ubtA5LOl5BqMmIKApCOWFC/OHDh/Hzzz9j7dq1OpKUf1evXo3zzjsP8+bN0/PHjBmD/fv34/fffy8QGro2t23bpt+zH4/vTXcnoUA2btxYb8+MJKXQegbZUCBNK9WE+2OADhP1TRHkcrT+TPcpXaFDhw7V1iz7O01LcOPGjTpIiBGyXFdEUaiN+D3FmGtBEMoEUy6YMsF+vKuuukrnGppQdGjh/fHHHzrIhf19FB66OimEtC5nzpyJlStX6gCd+vXra7GbP3++dsHSBdqmTRstZhRSihyDYrgeI1i5LUaQsg+QFt20adO0oFGMzWV4fFyGQTXsu+SxcH8UPa7P9AqKK4WdEa7c/5QpU9C9e3fcfffdWqjZV8rEf/Yz0j1b1NUqCCcCXt/nnjXaeFf5iCgKQjmg65LWHAWPEZmmVWZCFyTFjtZekyZNtPXFSE4GxdAipFCdffbZOtKUrszOnTvr6SwEQKFjigbnMSKVbloKGK27cePG6eAYTqdwsf+S+9mzZ4/uB2SEqJkvSYHjtnkMrVq10mLL4+b7du3a6fQRiibTPGg18hiZfsF1CM+PUavcFvsaRRSFk8GJFkUfl/hIBEEQhCrKddddh4/ffdV4V/lIn6IgCIIgGIgoCoIgCIKBiKIgCIIgGIgoCoIgCIKBiKIgCIIgGIgoCoIgCIKBiKIgVDEy89KRkZuq/qYh327Rze4se7FwQRDKjuQpCsJJJjXnMLLyMrD78FYcTN2HvYd3wqZE0M/HD1GhdeBw2VEnrC7aN+iCFnXbIi5SEumF2sOJzlMUURSEk0Ry1iHM2fg71h1YrizDNGxJWKctxAC/IGMJwOlywqX++fv4Iya8nhbGLk16o1vTPuje/FQE+MrYhkLNRkRREGo4dIXO2/wHpq78ChsOrITFlqesQn/1a+QwTQ5lGSohVI34+Phqq5BWI0vJOV0O+KrXjes0x8C2I3HD0HsQFhihlxWEmoiIoiDUYDLy0vHFwrcwe9NUJGceQlBACGx2K/x8/dGrRT/0aNYXcVGNUC+8gRbA9LxU5OXnYlP8GizbtRAH0/YhOCDYGMHCB8M6nokx3S7AgDbDxaUq1EhEFAWhBvPC7w/hr41TYXVYlcXnA4fTiQv6XInze12BOmH1EB4ciQC/QGNpNxzVIteWi8TMA9h8cC1+X/0dNsevpRmp58dFNcZdpz+hLMcRIoxCjUNEURBqKC/PfASz1v8KmxJEP18/tK3fEZf0vxFD251RaIDhY8Efa2LGfszbPBNf/jsF2ZYs/ooRFVIHl/S9AVf0v1m7XAWhpnCiRVF+PYJwApg08zH8uf4XLYiUtiHtR+P98b9iWIezSi2IhHZgg6imuKzvzZh06aeIDovRU9NzUvH9so/xhxJdec4VhPIjoigIlcyMtT9g3pYZsDtsOpq0X+uheODM57RFRxdquVCrdW7cEx9cO1VZidHabZqafVhZj+9gzd7/dMSqIAhlR0RRECqZ6Wt+UJZcinrlQpu4jrjj9McRFhTpnllBGkQ3xr1nPIuI4CglsL44mLpHR7bmWXP0/Jz8LCSk78eew9t1i0/bh4y8VD1PEISjkT5FQahEpq76Gh/MfwXZlgwthB+M/xVNY1oac70DUzzoOv14weuw2vK1S/V/IyYgLqKxslBnYt3+FUjKPKitSQbztInrhHN6XIK2DTopK5PuV0GoukifoiDUIBZvm4vUrGS4nC4MajsCjaKbGnO8h79vAEZ2PBv9Wg/T7tm0nFR8tvBtPPzjTfhx2SfYmbQFWZYsZOSmY0/ydvy9aTqe+OUOvD/vFRzKOGhsRRAEIqIoCJXEP1v+xI6kzQjwD9DRpuf2ukz/rQyYlnFW93EICQhVIumvXaZWuwX+fgG66k1seH20rN8O0aGxenqmJR0/Lv0UU/5+SZeZEwTBjYiiIFQSmxPWIz59n84zHNF5rHZbuuNHK4dOjXpgYLsRuoC4rxLfXGsO2jfsigfOeh6Pn/saHhk7CU+c9zouPuU63f8YEhSK2et/xaJtcyRiVRAMRBQFoRKwuxw4nJ2kX7MyTct67ZUFVzgp39vUCYvF8I5jEegXBIsSxLN7XowJZ7+MM7pdiFNaDtLRqox8/d/IR3Ber8thseXCx9cHPyz9CPtTdhlbEYTajYiiIFQCaVnJSMtO1nVKncoKa163VZnyEctL39ZD8NmNM/HVLXNwz5in0bZ+J20VehIaGIZze16BLo37qBuAL7Ye2oA1+5fr/khBqO2IKApCJZBlyUBWfiaUKabFpklMS/hUouvUJCQwFK3qt0fbuE6ICIoyph5N67gOOLX1INgcNl13dcPBlci1ZhtzBaH2IqIoCJVAWm6KHiTY5XLo3MTQwHBjTtWhU6OeqB/ZQAf/bD64Bpk5adqqFYTajIiiIHgRh8OBTUpgPvnnDew9vBuBfoFIzUmG3WE3lqg6RIfGICI4Wr/el7Ib//vyEjzx621YsHWWTt8QhNqIiKIgeAGWVdudvB2vznocd359GdbtXw5/Pz/k2/MRHhThlVQMRpUyfeJA6h4kZiYgN99dtaa8NI5uhvYNOuvXdocVKdmJOo1kwg834Y6vLsXWQ+v1WI+CUJvwe0phvBYEoZys378Sj/18K5bvWgh6IBlxGhkSieaxbXDVgNvQpXHvcgsjrcztSZswbfU3ukLOl4unYPGOv5V1t1NHkLLEW2hQ2d2zgQHBaBbbUvd5Mm2EfYvMX2RgTlZeOhZvnwuO+9+xYVc9TxBOBtOmTcO5Z4023lU+UuZNECrIqj1L8ML0B3Eo44AWmAD/QPRrNQSD2p2O/m2G6cT58mJVlubsDb8pIXwHOxI3I8g/SE83I0UjgiLRr+0wXH/a3WhRt42aUvZgHlq5rIm6PWmzshRnY3viBuw8tEWna4Qpsb1q4O0Yd8o1CA4INdYQhBOHjKcoCNWI5KxDuPPLy3AgbbdOv2DFmPN6X4Fzel6uxLCesVT5WX9gpdr+5bA58rV48efauE5zOJQleij9gLbgHE47BrQdjsfOfR3RIXWMNcuJ2v66AyvwwbxXsGzXPwhUIswUjhuG3o8Lel+pK+QIwolEap8KQjXi68XvI0FZiPwpccT8m4c/gKsH3uEVQaQL8925z+sxGG1OK9o16IL7z3wej57zCh4/5zUlUlcrmXQqofLHqt1LMG3l10rTKphr6OODbk1PwcNjX8IFyjrkfrPzs/D9fx9iU/xaLcyCUJMRURSEcsKAl8Xb5yhLzaHdmlcO/B/GdLlQWW/e+VmxH3HF7sVw+bjQsm573DL0AZzf6wr0aNYXPZv3wy3DH8Jlp96oS7pZ7HlYtnMBcm0VC74xaRLTQon7beiqBNJPWcD71bn+t2M+bHYOkiwINRcRRUEoJ7M3TNX5iIRBK5f3u1kJlHd+UrTI9h7eiWC1XQpR27iO6Nmivx7+ySQ8OAJn9hxnDFbsi+TsJGyN3+A1a65RdBOM7DRWR736+wdg4bbZuu9REGoyIoqCUE72KeuJgkVBGtxuJAL8vBehyUCaxMx4XRGH/YjMJyyuP69RdHMdWkOxZD8jBcx7Hk4f9GzWH+0adtV9jXQT05UqLlShJiOiKAjl5HDWIdicNm2p9WkxSPfHeQu6LNs37AyX06HdsclKIFkhpyj/bJ2lRZOVaGhVxoTWpZZ5jeZ1W6N3i35q+w69/40HV8HpcBhzBaHmIaIoCOWA6RcMhGE9U7pMuzTppV97k4bKCmR0aaB/MJbuXojfVn+vI00pUKxZuit5K2as+dEtinCgbngcWsV18OpxsL+Sgxi7uE1lIHK/TvVPEGoqIoqCUA5Ssw/rHEJtHSpRsiuL0du0iG2N0V3P00JIPls0GQ98fx2mrvoGnyx8Ezd9ej5W7flXz48OicWZ3S7UAwx7E5apCwuK0MLLlJOUrGQtjIJQUxFRFIRywAR9uk0Je9jSda1Q7/a1MVn+sn43oXPj3rArIbLarDp3cNKMR/D5wsm6P5PjNgb4BeG8XldgeKexum/Rm+RZc3TtVl+1XZeyRhnc4++FknWCUFURURSEclAvooHOS9R5gartTt5Kg9HrtKzXDg+d9TwGtRuJmLBY+Pn4IyggWCfV023bul57XD3of7hp6H36eLwNcyQt1lwttnanE81iW2kRFoSaioiiIJQDjjDRMLqp7m9zKFGctf4XZUlVTlRm6/od8Og5r+LWEROUKLXWtVDZRnU5Dw8owbxm0B0FVqu3ycrLRGJWIli31e60azEWhJqMiKIglJPT2o1CWHCEesXaofuxJWG9e0YlEBVSB8M6nqELeDtcdt0Gq/13bdzb6wE+nmyMX4UN+5erVz5oGtMCcVGNvBrdKghVDRFFQSgnp7YejAC/AB2EkpqTgm//+wCZeanGXO/DABdaa6YI6pzESiQ58xBmrPlJD3+Vb7NgQNsRaFSnWcH+BaEmIqIoCOWkbkQcrup/m65mAzixZPs8fLrobS2S1Z1sSybenPMM1h5YptNC6oTGYFCbEYgIijKWEISaiYiiIFSAoR1Hu12YPr6wOvIxc+0PeHLqHdgcv0bNrZ7imJhxEM9Pf9BdGMDpRJ41F6O6nY++bYZ4PbpVEKoaIoqCUAHqRjTAfWMm6lHsicVqwYLNf+K+b6/FRwteR2ZuOpxOhy4argfzPU7zJrRYS9PMfSdnJeC7pR/h+o/P1gMMU9PpOh3ZeSzGD74LQf60iAWhZiPjKQqCF9h7eDse//k2HEjfp5P6WQ+VRlWd0Lo6p7Fdw85oUqflMfvj7HYbLut/U4nDTmVZMvDsb/dh4dbZOtL12QunYHjHs0q03pjTuPfwLh05WhK0cLPVdjfFr8WqvYthseVRTfX2KeQD2gzDhLMnISas4kNhCUJ5kEGGBaGakpQZr0ux/b7mG6Rmp+pKM6xbSoHUP7Jj/NRoqYUEhuGj637T9UaLo6yi+Nqfj+OXlV/p18cSYz1HbYM5lzyOgj7Edqdj/Gl36fJxgnCykEGGBaGaUj+yEW4Ycg9evvhTDOt4Jto36IyokBgtOLQedRTnMZtFi50nKVlJ2pWZ77AUK35cfu/hHVixZ5G27DxhpCr3y6YHKi6hcd9cNzaivrZox3Q9Dw+NfRn3n/GcCKJQ6xBLURAqicPZiVi+61/sU6KVkpN8zD5D/gwD/QNx/ZB7lRDV19OSMhMwZd6LmLtxOm4Z9hDGdDtfW39zN83Q8ydd+rFatgEmzXwE6bmpuGX4gzit3Rhd8Yb8ue5nPUgxTUGWaysquITTgvyCERkSjZ7N+6Njw25oEN3YmCsIJx9xnwqCoMXqlxVfYOLUu5W1GaXHUzyzxzhsiV+HNXuXanm7dvAd+G/nfGyNX6+twnbKMn1x3AdoVKe5eyMeHEuQaYFK7qFQVRH3qSAIWqQ6NeqBoR3OhM1u0/2J01Z+g+2HNsHPzx/+qv226ltsTdigRS0kMBRndh+HGMPKLAr7NUtqIoiCcAQRRUGoonRs1B33jH4KfVsP1SNisG+Q0aFuu85Hu0xNYbvz9Cdw8anXITggxFhbEITyIKIoCFWYlvXa4u7RT2phZCCOZ7ANUy0YMXrfGc/h3J6XaXEUBKFiyK9IEKo4HD6KwnhKy8HaWjThGIsPj30ZZ3Ufp0fIFwSh4ogoCkI1gMJ475indYQo0ycYWMOk+jFdLzhmcr4gCGVDok8FoRqRZ8vB/M0zlUi2R7sGXcRlKtR4JCVDEKoBKdnJOJC6W1lsNh30csLw8VFC6AMnf7Yn+KfLtI7Y8PpoGNUYwYFhxlRBqFxEFAWhipOem4IHv78ey3cvRpB/oDG15sNbBUfev3PUEzi/15U6LUQQKhvJUxSEKs7KPYuRmJmA8KBwIwWi5uf5+fv661xI1nPddHCNHiZLEGoiYikKQhlZsOVPvDF7Ig5nJcLl49KFswN8A4y5NQ8WCD+Qugu7krbptJD+bYdj4nlvIUw9FAhCZSPuU0Go4piimJx1CGGB4fj85j8QERyl3YuesK+RLkYOz8R57JOjpVURKFCskcptWW35uhxcWdGp/x75jkUpWhKO4vfNkvfx8YI3YFGiOKjdSDx57mQRReGEIO5TQaguKKELDQpDeFCUEscI9TeyUAsLisC+lN26KPduZWVx3MKiy5S1JWUlYOqKr7Fw6xwE+AUWu8zxWqgScg4YXFIruryPuk34K0uYhQIEoaYjlqIglJECSzEzAXUj4/DVzXOUeEQYc92s2rMY3y/7DHsOb9Ml2oL8g/ToFf3aDMM1A2/TYyeWlYzcNLw55xnM3/wHgtW2xp92tw54KUueIvMbOXrGzyu/RKAS1eJoUqcFhnU6EwPbjCiwKL9f+hHe+/sl5DusYikKJxSxFAWhmrNu33I89/v9+HfbbBxM3aOtu/1pe7A9cTN+WPoxXp45oVxW16+rvsSsdb/qqjYZuen4ZfkX2BK/pkwu1MTMeExWgr41fi02HFhZbJu9cSqmrfy2XK5ZQajuiCgKghfh6Psf//M64tMO6v4/jmjRILIxQpVlGOAXoEuz/bttLn5a8flRfZDHYuWeJfh99XfqlUsn7LOvMj59L17780m4HKUXWKeyFDniRqB/sHa/MsXCs3EalGAfVCIuTiShNiKiKAheJD59P5bsnI8Af3/tXry074345MYZeO+an9GeFWiUUOZYs/Dn+l9gsecZax2bLfHr8cL0B/WgwxRZul7NWqc7k7di8pxnjgqOORYM/OGI+81iW+LWYQ/i8XNew+Nnv44Lel+ljjtQya6PWIlCrUVEURC8hNPlwLZDm7Qll2+zoG/rIbis3w2IDI5Cq/rtcd3gu+GvxIyBKxZrHg5nHjLWLJk8Wx7mbJqmq+fQcosMjsZLF3+IMV3O1+JFMfxj3U+Yu+H3Mll2rJ/K6jSD24/B8E5jMbzzWWhRr506MnVLEAtRqMWIKAqCl6AFRhcpNYWWlp+ve6xDkzrhdQsCVyigTG84lkXmglMHxXy+6G0dFUor7ppBt6Nb01Nw64iH0LlRDy1i+bZcfLP0A+xM2qTXKi08Xs/UjGOlaQhCbUFEURC8BPP/4qIaK3FxaRFbsftfLNo+R5eFO5C2Bx/MnwS7ww6HEkTOb12/g16nJLbEb8DnC9/R/ZGsINO5cU9lzbXF3pQdSMtJRf82w+DvH6B27Iuth9Zj8l/PICMvw1j72FAAc/KzcTBtr+4HTc5KQFr24WOKtCDUBkQUBcGLtK7XDj2b9dN9dslZifhwwauYNPNRPDvtXizdtVALYqBfMAa2G3FMQWQax9tznkVK9iFt0bFiTkLGAXww72VMnHoXnvz1dsxc96MuBsDtMI9w/f6V+GLRW7pI+bFg5GugXxD2HN6B99T2Xpj+MJ7//UHMXj9VHbdaVyxGoRYjoigIXoSW4jWD70C9iDi3MGYmYu6mGVh3YKWa64LFloveLfvh2kF3HdNdmZZ3GMt2/aOX0UE06m9i+kFsOLAaWxM26MbCAOwbNINsMi0Z2HZoo9pHyQE8FFhGmdIitFhzsOngaizdOV+1BdiTsk0LplNt81jbEISajIiiIHiZ3s0H4JkL3sWoLufpLj67EkerzaKT5W8Ych/uHPmE7ns8FsH+oRja8UzUVeLK9Zj8z4LcjGg1W6h6r4sC6FSKADRSgjyo/em6uk5JMFBnSPsxSkxtyLZk6YAg5j2y5Vnz1LRMRIRE4ZK+18tYjUKtRCraCEIZKU1FG5Kek4rN8WuQlZ+B2LD6CAkKQ9u4jkrAgowlSoY/y+TsJGTmpmqL83hweVqADaKbFHssJrQEU7KSkZCx36jDerS1GhwUqvs7PYucS0Ub4WQhBcEFoYpTWlGsSYgoCicLEUVBqOJ4imJcZCOc0/sKbaVpX2kRzGCa6hzVSct2/f7lWLx9LnKsOSKKwglFRFEQqjj/bJ2N12c/hcNKFBn1WSvy+9Rdwqn+2Zw2DG47Co+f95oeNksQKhspCC4IVZxW9dohLrwhrA4b8h35sNgsNb85LOp8rbDZ89G1SS8ElTDChiBUd8RSFIQy4nDZMXPNj5i7eTrybfm1w1JU8FYREhCCW0c8jDZxnQpcw4JQmYj7VBAEQRAMxH0qCIIgCCcJEUVBEARBMBBRFARBEAQDEUVBEARBMBBRFARBEAQDEUVBEARBMBBRFARBEAQDEUVBEARBMBBRFARBEAQDEUVBqKY4nU7YbDbjnSAI3kBEURCqKR988AEmT56sxVEQBO8goigI1ZCMjAxMmjQJzz33HBITE42pgiBUFBFFQaiGvPXWW0hKSkJWVpZ+LdaiIHgHEUVBqGZQDKdPn46cnBw4HA589913iI+PN+YKglARRBQFoZrx3nvvYd26dXp8Q7J//368/vrrYi0KghcQURSEagQFcM6cObBYLPDz80NgYCDsdjtmzpyJ3bt3G0sJglBeRBQFoRrBiNPly5dj5MiRuPLKKzF+/HicccYZOHDgAF566SWxFgWhgogoCkI1YsiQIZg2bRpmzZqFTp06oXXr1vr9jBkzcNFFF8HHx8dYUhCE8iCiKAjVCFqIo0aN0uLHPkU2ulFPO+20gumCIJQfEUVBEARBMBBRFARBEAQDEUVBEARBMBBRFARBEAQDEUVBEARBMBBRFARBEAQDEUVBEARBMBBRFARBEAQDEUVBEARBMBBRFARBEAQDEUVBEARBMBBRFARBEAQDEUVBEARBMBBRFARBEAQDEUVBEARBMBBRFARBEAQDEUVBEARBMBBRFARBEAQDEUVBqEZYrVbY7Xb92sfHRzfidDphs9n0a0EQyo+IoiBUI3744Qe88cYb2LVrlxZHiuHu3bsxZcoUfP755/q9IAjlR0RREKoRhw8fxqOPPoqxY8di/vz5+Pfff3HWWWfhrrvuwo4dO4ylBEEoLz4uhfFaEIQqTl5eHi655BLMmDGjkFXYv39//Pnnn4iMjDSmCELN4LrrrsPH775qvKt8xFIUhGpESEgIzj//fNSpU8eYAoSFheHyyy9HeHi4MUUQhPIioigI1YyrrroKvXr1Kgiyad++PcaPHw9fX/k5C0JFkV+RIFQz/P39ce211yI2NlZbjrfffjtCQ0ONuYIgVAQRRUGohtBd2rBhQ9StW1f3MZpWoyAIFUNEURCqKR988AE+/fRTbS0KguAdRBQFoZrSr18/jBgxQqzEGs7GjRsxfPhwxMXF6RYVFYUBAwZgw4YNkOQB7yOiKAiCUEVZvHgxzjzzTAwZMgT79u1DYmKiLtbQrl073HnnndizZ4+xpOAtJE9REAShCsKSftdff70u3/f+++9rC9EkJydHW4rsV27WrJkxFbqAQ0ZGhvYe1KtXD02bNtXTHQ4HEhISdPoOKyEdOHBAW5kxMTFo0aKFXoZw3t69e5GWlqa3wdakSRPUr1/fWAJISkrSy3BeRESEXj8oKEjPy8/P1/vhdjMzM3Hw4EHd781jDAgI0MuUlROdpyiiKAiCUAWhQN1yyy1agL7++utCwlQULvvtt9/ik08+QXZ2ti7sQDF6/vnn0bt3b6Snp+Pmm2+GxWLRKTz//fefFk9GLb/++uvo27ev3s60adPw8ssva0Fj3isrKJ1zzjmYNGkS/Pz8sH79ev166dKlej73c/fdd+Oyyy5DYGAgtm3bpgO/Tj31VC2Cc+bM0es//PDDWijLgyTvC4IgCDr15rTTTtNCM2HCBHz22WdaHFnej5afJz///LMWwEceeQTLli3TbtdTTjkFEydORGpqqt4Wqx2tXLlST583bx5Wr16NTp06YfLkydpq5Ps333xT57xS/Cic3BarJTEHlhbg448/rgtHsJ+T2+I+eVwzZ87UAknh5LZ4zDfddBM2b96sRba8gngyEFEUBEGoolx44YV44okntAv1hhtuwJVXXolzzz1X9yfSCqMQ0Zr74osvcMcdd+i+R7o16c5kLitFigJFUczNzdVWF/soOZ1C17p1ayQnJ2vhzMrK0n9pVdJ1Syhm48aN09tcsmQJUlJSCrZLzjjjDC2sv/32m94+BZHie9ttt6Fr1656veqGiKIgCEIVhX2A7Fek6P30009466238Nhjj2kLjIXhN23apMWM/XxfffWVFj1WPLr66qu1SNL6Y4AOBZACxdq5ppVJAaPble5WulL79OmDwYMH48UXX9SlBCl+zz77rJ5H8WX/IMWVfZWeYteyZcsCUSXcLvsWqysiioIgCNWA8847T1cveuCBB7SblOLGYBvTbdmxY0cMGzZMp2/wL/v2OMzYwIEDCyy/4qBgchsUYFqlFGD2EbZt21b3UdJFysCekuC2uX8KJqEoVmck0Eao8dDtw5uH6fIRqj60YOiW4w29OrrgvAH78Gjp8TPwjDwls2bN0v17tBbpwqRlSHflvffeW2wxB1p7dGkyWpXr0cXJW/8zzzyjR1fhWJwUwaK88sorur/yu+++025Y9lFSJGlRmt8L3boMsmEADo+ZFuatt96qqy5547uT6FNB8DL80cbHx+sn6aIBCkLVgw8vW7Zs0dGTrNhTWwud013JcTKZi8gI0UGDBmmR4QDTdKny86El2LhxY/z444+6n5FBLVdccYX+zNj/9+uvv+r1mBLBwJeSRJEBPEzToAhTYKOjo/Ux3H///To38uOPP9Z9how0Zf/mO++8o5f56KOP9LrPPfecLiiwfft2HagjongSYHQVfea8YPhUyacczwuHFwQvAg7CSrgMO4355V100UV6PsOEGTVl3ii5DC8m/ij5mhcb/etjxowp8ctlp/R9992H6dOn6wuFHePeuBDKw9tvv63P97XXXtMXv+Dmggsu0JVf2E9Snfs6agu0dBi4wTEjf/nll1pt4VOQ/ve//2HBggXaPUk3J9MoeM/hdM/PhtGgFDH2N/K2zvsQr3neFylkdL3yvkDrkvmFhPdDWp1ffvmlfk9rcuHChfo7oFt01KhR+r7G4vOEfYfsZ/zwww91ygXFlsJsBvgwT5IPoUz/uPTSS71yLxRRLAMUJHY68wmGHdD0iRM+rdx44436S6VboFWrVrqD+aWXXsKUKVO00PFJi6dOQeQXR3HlExZdEU8++aQWRU7nRXesL5YXFC8SWiK8AHnBeY51dyJ59dVXdbg2n95YDkpww++Fo9PzgUVEserDGzItHAoi/9ZmUSQUQjbzVn2s+xLvW563dC5nWtrcBvG0vLksp3Mat8fXnt4Uz/VNuA73Q0wjwhOub27PG5xoUazWfgk+OZlfimcnLwslUwTZSUwLkvOZaPrUU09p6/Cbb77B2rVr9ZfGpx2u67ktYk4/1hfLRFharIy+ogjT506felH4lLZz507tmmD+D5+m9u/fX6jzmxej6b5gY8KueeERhk0fOnRId3gzR4jL0I3CbRM+GHA++w54bmzch+cPpDbDz0Fa9WnCEXhf4r2I96Tj3Zc8l2PjuiZ87fmecDu855nb4/yS1jcx75tsRQWReG6vOlKtRbE4KBTLly/XZr9n+SLCL4tRWewUpqhUFIZB01XRo0cPbYlQiFnpwfNJi5bJDz/8oF0J11xzje4joM+eLlz2m5jwmOnuZSc1ffFstELNpzv2FbAyBAX/nnvu0dFhfM++BEILka7gNWvWaBcKXRgUf3N9QRAE4fjUOFFksVzm3XBkcopfUdg5zacpihmtq4rAbbBvkvvq3LkzmjdvrvtBaNWZ8D0FjRUpaL39/fffWhxpuZpPUxTEBx98ULv5KGrcLl197CPkaxIcHKytUAouxZLRlGPHjsV7772nXb9MyKWojhw5Uluv3OZDDz1U7JOcIAiCUDw1ThRp7rNvkR3DxZnwnMeoKS5XEROfrlNahQyVpiByewzyYaIs+zQJ6wcyYIB5Q8wxMvdHQaTrgdBFyrwgVr1nP6e5DAWS50DLl9ClxJJPtDS5DIWdIesUflOE6Upl434FQRCEslPjRJHuQroxGYRTHJxH0eByFem7oIVIK45RV7Q+ydChQ3VkGPPiKE7s/6Ngscq8pwB7ujQprgy9XrFihbb0GM5McaQLlFYl+xZNuE1P65ZWI61inpMgCIJQcWqcKHKoFNb9oxuyuCoOrBPIfr42bdpoASsvDJZhwVxGs9KNybQNChrdlkyLYMkjCiEtyNL061E4maTLxgK8dIcylHr06NHGEkdDUec+PAVXEARBKD81ThQpduzjY78b0ySKwv42iiWXKS+07ljlgftixQcmzTKplakctPDYr0krkq5aNlqtnlapGT3GaZzfoUMHnUzLvkYGyLDRWmSZJrPKRGmsWoqvKcSCIAhC2an2d08GklAETCHge6ZHUCDojjSFkULIgJenn35a99f17Nmz3BYWUx1oEbKvkFGntOZoKdJ9ylxHBsWYCbC0+FjNnu8Jk3E51ArTL0xxpPhRRJlIa4ofj585ltwPKc2xNmrUSLtbmf5RGhEVBEEQClNtRZH9dgw8YYoCxYMlhig8FIMuXbroNAgKJdMlGjRooAWDlRlYt4+VcIqLyjQF9ngwwIYBNdx/URgwQyH8448/dLQoUyco0rQCmdTPdAxaf6wEYaZudO/eXQfk0OXLCvQ8XgYDccBPc2DR4ixAvucxcx7Pm8PK0JVL0Wc1HuZkmnmMgiAIwvGpthVteNjmDd+0ooqKGiM7PfvzuJxpnRWF2zMrMRxPGLlNNlOQiuI5n9uklUrrkXDbFHKWbaLlSvEyKXq8XJbHS0wB5TZNijsOvjeT/jndc/naCh8S+KAiFW2qB/SwTJ06VSraCBqpaFNKKAJMR2ArqfoCBcVcxlyuOBEjnM7ljyeIxBSrkrblOX/VqlU6AIfWJVM1aEHSKmRxgaKl2IoeL9+bFCdwxR0Hp5nry81EEAShbFRbUawu0A1K6+2WW27BxRdfrIdeYb8jm6foCYIgCCcfEcVKhn2MLMVm1iNlGgf7GUUQBUEQqh4iioIgCIJgIKIoCIIgCAYiioIgCIJgIKIoCIJQDYlP34fZ66fir42/Yd3+5bA6CqcbZednYfbGaZi9YSo2HFgFu7NwznJa7mH8vWmGXv+/nQuQZy08alBCxgH8s2UW5mz8HQvU36LZexl5qfhvx3y9/uwN05BvsxhzqjciioIgCNUQCt2LMx7CyzMmYPqa75FbRNR2JG7EpJmP4GXVflj6MdKyU4w5bg6m7cUbsydi0h+P4svFbyPLkmbMcZOUeQgfLHgFr/75GN6Z8yzScwuvH592AJ/9+xZe/eMxvKL2kaNEuCYgoigIglANsdrzlbWWhsy8dCVIucqSKzzwAOdn5qr5uelK8LLgcB0Z/Jw4nHZk5WWo9dOQnZcFZ9E6Lmr5rLxMvf0MS4Ze3hNuL9uSreZnIF1tw4maUVpSRFEQBKEawqIdvj6+7ubLAh6Fi4m45/t5zC/KkfV9VDsaj+3r+UW2oTTQt+AY/IrOrbaIKAqCIAiCgYiiIAiCIBiIKAqCIAiCgYiiIAhCNUf3CxqvTQL9g3Xoi0v9Y5+fn2qeBPoHGa+4vg/8/QqXnvT3PTLYgI/6F+AfqF+b+Pm6+ytrRnjNEUQUBUEQqjCH0g9iw4HV+Hf73IK2cvdi7EjcrISJwuWro1BX7F6ExTvm6fmLt/+NJeo1hYuj5aTlpmD57oX4b+d8PX/J9nlYtnOhEjSnFkyLLQ9r9i4rWJ95i2v3LYfNka+F0eGyq/XV9tV2OX/5roV6f5mWdC2ofr6+7vk73PPZFm77C6v2/qePrTpRbcdTrApYbEBiuhNbDzlwINWFtGwXrHYgKtQH6hpRFwvQOs4XLer7on64DyJCakp8VvVCxlOsXsh4im5sDis+W/gmVu5ZghxrNnLzs4056sathIjJ9tmWTP0+PCgCwYGh+jXhbT1XrZNnc+cuBimrMUwt444idcNk++z8TG1Jcn50aGyhtAu7w4YsSwacLgqnL2LC6xUk8Jv75z7c01yoE1av0PY5ndZos9jW6N92KEZ2OhsRwVHG3NJzosdTFFEsBznqvvr3RhtmrnXAYlVimOtUF6cSSfXaoT7NIH8fddHQ5QB1ofkgUolhRAjQo7kfhnXyR0slkiKPJw4RxeqFiKJbkN6fPwnfL/1EPWhbtEVYFAqQKUIULjZPPOdT+BzOwnmKFDbTpUoZKJrH6Dmf2IvkKZrpGO473dHz3VO5ZyA4IBQ3D30A5/e+8ig37PEQUazC5Oa78NF8K1bsciIth2LoUheNujjUdcELgEJIPD9RvnaqxklBAUDjOr7o0sQX5/YOQNsGR56qhMpDRLF6IaII/LDsE7z11zPqlVt4WKItNqK+emfcZKo4FFRaokzsZ98kjz8ushEmnv8WujTtXabzEFGsgljUA9Dn/1gxd6Mdqdku2NQDFV2jxebDHgP9HKc+ba4XF+WjrcYrBwUiRImlUHmIKFYvarsopmYn46WZE7Bg65/w9/HHqa0G494znkFkSLThqqw47luXeQPjNo+89sYeKIq0TNlvyRJye5J3weqw4PFzXsNZ3ccpQ6L03+mJFkUxVY5DUqYLD3+bh2/+tSFZveY16a8+tbIKIuGHzfV40R3KcOG7JTY89K0Fu5K8c6ELglD9OZi+HwdT9ylBDFBCYsO4U69H4zrNERkcjaiQOl5p4cFRCPALVAKchO2Jm3Xd0pDAMEQo4S1u+bI2Hmud0FiM7nqeEvXTYHNatcW4KX6tMjKqduFwEcVjkKiE6+Xf87FylxP+6sGmPEJYHNyMuakN+x147Mc8dWEW7g8QBKG2wodkF5wuhxKWOmhUp5m6X3jp5qPIys9U1tu7OOv13rj6wzNw9zdX4tIpw3Dr5xfi703TdX+mN6Gghwa4g4CSsw4d1bdZ1RBRLIFD6U68OjMfi7c7EFiJ7k32QyakuTDxZwu2JIgwCoJQeazZtwx3fHkpPpj/KhxK/Bic43DYddTp1oT1ePzn2/HmX8/oqNPaiohiMRzOcuGNP6xYuMWB0LIFSpULBursT3HhNSXCDN4RBEHwNkzfeG/ei9hycK268bstz6axLdGjWV80rdNKv2de40/LP8X3Sz9Gvi1PT6ttiCgWId8OfPefDX9vtiMsyO3IOBH4qW9ixyEnPp5n1bmOgiDUTvTIFmUIRCktPyz7GJuUIAYFhOh8wSsG3IyHznwRz144BQ+e+TwGth2p5gXBR+1/2upvsPbACnX/8+4dkFVzGIRTlZHo0yIs2+HAEz9btDCd6O/O7gQignxwx+hAjOrKi8eYIVQIiT6tXtT06NP9qbuxaNtfyFKWm5lHaMJ8xEMZ+3VlmbScFPVgHoYPxv+G5rFuS668sJ/wmd/uwaz16vNU+7ik7/W4ZfjDCPQ74go7mLYHr/75BJYao/A/eNYLGHfKtXp5FhL4cflnOiCnuP5Nu8OOqwb9D2GB4caUI/y84nO8/ddzOi2jaUwLDGo3ShcLKCq4dOE2jWmJwWp+RMiRJH9Jyagksi0urNjjwL7DrDzj1NVoSESwD1rE+aJdfV8Eqevj1en5WLXXiYCT9DtkukefVn64tF+ADu45lO7C1gSHFmkG+rAQQLA6zj4t/dGyni9Cj5QvFEpARLF6UdNFkSXQnvvtPiRkHNCCUxS6MIOVaDAcLzgw2CuiyDJxL8+cgJ1JW5U45ePLm/5Cuwad1JzCAvf+vJfxyT+T9QP5Ff1vxQ1D7kVIYKiuXHPhWwP1aPzFWXosEzf/4a2oG9HAmHIEUxTdBQYcallLsRaoxZ6HQW1G4vFzX9PBOSaSkuFFKHwLttjxwm/5eOi7fLz1pxVfLrLip2U2TFvpbt8vteH9OVY8Oy0fT/+cry6ekyeIhOkemw448MqMfExS7b25+fh5uftYf11hw7f/2fDVIps6Jwse/dGi8ycTlXAKQmkJDAxEREQEQkNDa2Vi/MmGrlGWPwsqodF6cw/6673fdZ49B/n2XC12LqdLl3wrKojEnQvJsm7+2J2yXa1jpk/4qGMOLPZ4zVbc9orioyTnWNvxLzj3k0eNFUWL3YWXldXHgJlZ6+xYt8+BlGyXMvPVTcHPRz39uBsr0mTkurA7iTVM+SRjbOAkwYuWViHzIxmVmqWuSZaNM4+XX5jDSReMCyt3O/D1YpsWx1+UcOaJEeR1fH3Vj1iJSFCQulmpv0WfkikqnMcWEBBw1PyqBI/NZrPho48+QufOnXHRRRdhzZo1+riFEwcru4zpdiEu6HMNzu99VaF20Snj0a/NUC0cTi868XjncN89jo1pufIqttttBcUCKFYX9D76eM3G4/asvVocLCreom4bnN3zsmK3MU5tY3D7kcW6YE8kNVIU6W6863ML5m20I10JHqM7A9V3zWAWnWvocd/iPYzT6aqkhVieexovm+Iu3/Je0uYxFRyvB5zHRouSx2tTAskcRxYX+FxZwSxFJ3gHisi///6LYcOGoXXr1jj77LOxfv16LY6Ef999911069YNHTt2xO23346srCy9XlXEPK6kpCTs378f27dvR3Z2thZ+4cRBYbhu8F246/QncMfIxwq1e0Y9hUtPvRF1w+PctUhP4s9ZXy/GpRzoF4DL+9+EO09//KhjZrt39ERlfR5bzJxOJ+pHNcSNQ+4rdjv3jJqohPcqRIZGG2ucHGrcr4Guxge+sShhdGoxpKhU5i2KD1K0Pk9t5Ycnzw/CxzeF4stbQ3HT8ABdvq2ye2z5BVIgmcrBCjmszZpndc8TKg77IBMTE5Geno5NmzZh7dq12tqihZiSkqJFMz4+XgtNamqq/uF7iiIFh8uarTjB5DTPZdiKClXR7RS3nLmM5zTPbfOpn1bhPffcg927d2PhwoXo16+fXn7OnDno1asXWrRogb/++ksv7+/vD6vVirfffhutWrXCeeedp8WUVrHneRR3/ELJMLhGu08Dgo9qvFkFqr90X1b6zaOMsAJOccdsttIVGKAbNqjE8+c+TnZ918K/vGrODmUx0VWanuu2siobXrJ29b+zevjjCSWIp3X0V0+BPmhUxweX9AvE8xcH66CYEwXP+Zdldny6wApH1S4aUW3gDd8UmYyMDMycORMHDx7UwSBz587FqlWr9DxiCgXFh8JAgUxISMDOnTt127NnD/Ly8rTYmHDbOTk52LdvH3bs2KEbl6UQmwLruQzncRmKGt+by3GfaWlpeh+cZrfb9boU9QMHDuhlaRUSi8WCw4cPa1HncrRueZy5ublaBLk893Po0CG9HP9yO1yO29+2bRsyM91DFvE8Oc88fq7HhwQek6c4C2WBd5aqJYj6+spJQUp2UqF2OCsRudbcUh8tBe/kSt7xqTFXLa2jbxfbsGGf44QFytjsQI9mfrhuSCBCg47+qruqeZf3D9CpFicKPqT/vdGO+ZvtVexnVX3hDT4yMhK9e/fWFuOuXbu0sCxbtgzt2rVDmzZtCgSRUCg4nxGUY8eO1dGvV199NQYNGoRnn31WW1sUDK6TnJyspw0dOhSXX365jrS77LLLcNVVV2lx43Jc/tFHH8WAAQMwbtw4vczpp5+OU045Ra/D5ShmdOXS8rvmmmu0QFG4161bh9GjR+tlv/rqK31z43H17du3wB28ZMkSfPrpp1r0CC3D66+/Xv/98ccf8cMPP+j1KMQPP/yw3ueCBQv0shTTt956Sx/PFVdcoc/1jDPOwPfff1+lXcknE36Wx8r/Y6DJyQ42KQqjS+/77mpc88EZuPbDMwvape8OxW+rvyl1aTj2K1b1+1KNEUWOYLFomx1BgSfuR2h3ulAvwgd1VSsOum77tfVXN1VjwgmCAUV0o0r/onfgTYwuQ/Yd8iZPMVy+fDk2bNigXY516tQxlnRbfrScPv74Y9x1111o3Lgxpk+fjhUrVuB///ufFh9Op5jQ8nzhhRfw2Wef6XQRLrN582bt1rzgggsQFhamBe/555/Hd999h1GjRmnrdPXq1Rg/frx2hZrBPWymZWYKLvF0ZZoWKv9yPS5HMaVb9PHHHy84j0mTJulz5F8eKxu316lTJ50iwWPk8dFd/NRTT+HVV1/Fueeeq9ehG7Zt27a477778P7772vr1DwWwc2B9D2Ys2Eapq/5HjPW/lCozVr/C5bunK8HB9bCWIkfXY4lCzPX/Yjf13yHhVtn62klfVcUcVqGqTnJhdrh7ESdo1ga+49BPAdS96hz/Fnvt+i5U1xX7VniEfF6cqgRohif7lQXmV19yW4hKjVKM5gXyGhP9gtWBqyKUx54PDwuHl9ZI2J5XbNUHSNS1f1cqCAURdKsWTM0adJE3/g//PBD7dKk9ejpDqXY0LKbMWMGHA6Htu7q1q2r+yEZsEOLc+XKldrSomuSrwkF5r333sOsWbMQHR2NRx55RIsULT0KIdcbM2YMYmNjtbVKMfMWPDaLsmzN8+RrihldvRR4NsLz4TnTAuQ6jFz9888/9fH2799fBx7FxcVhyJAh+iGCFinFXyjM/pTdeGP2RDzxy2146tc7C7XHfv4fPpj/CpIy4/WoEpUFBwjekbwJT0+9R+3zVrw95zlkWdLV9OLdbIxdbRzTQhcn92xN1LTIkCh9zzke7Es9lHEAL894BE/+csdR5/6oOg6eO12yJ5MaIYpMXdh4wKEjTEsLRYduzXYNfdGzhS9a1PXVllVZBIgXVpZaJ/8YgrrzkNpJGYSa+6dbtmEdH/Ru6Yt2DXwRGuAWyNLCC5Ri+vdGJsoaE4UKQRGoX7++dkWyL+63335Dly5dtFVkPl3zL4WFAsdGKy0qijcM93S6MymQ7Mdjv11MTIy2NDmf1iStNVpYEyZMwJdffqlFictRoCiKFBxPAT7Z7N27V4szHwRo1VI0CV9TIGkJm32ewhH4fXNEe1pOxTY1rwy3jPKh7jO+al9hgRE6Z5HDRrkFsfgbYKB/MG4dOgH3n/kc7j/jSHvk7FfQt/UQfdylQu+35HPX5e0q/eSPTbUXRX6F25XwZFlc6mJzTzserG/KEfDvGBWICecE4f6zgvTfm0cEoU44B8c0FjwO7LvcetCpUz+Ks8jilVi/P8+GgFJ+yhRELju2lztwh8f18NlBuPvMIAzrpHZW/PVaLPwomI7Ch4UyrCaUgOlCPfXUU7Ww8UbPfkBac6aFZf6lW9J0ZRaHKZIU2XvvvReTJ0/WfYGczgjXd955B4899pi2Eiks5narmrgcT6D1zd/DfSu4iQ6JUb/ns3BOz8twdo9LCrVze16OQe1G6vEOWf2lqsDruWvTXujXagj6tjqtoA1oM1znXZYGVrSJi2yMMd0uUOd6abHnPqTDaD0W48mk2otiUoZLV61hgntpoHXYPMYHN48MwAWnBqB1fV80i/VFh8a+uHpwAK5VLaiUqRSM9szIc+kKM0wFyVKvTQ6kOvHsVAv2HmYEoTHxGHB/vI+e1skft58eiE6N/dAkxhdtlKV4ehd/3HNGEFrF+ZZa4LjPPKsSRSXaooregW7E5s2b6z4+Bp+MHDlS3/g94XsKJd2ctJzoIqWYcTotPkZyUkwaNmyo/zK/kf2Db7zxhg5Oue222xAcHFwQHdqhQwf93nRpcpvFiS6F0xRNzjPFiPsteozFwXU9Rd0Tc7tFt0V3Mq1CWouMRuU+uQ26V/lZ8XOg8BfdXm2nVb32uP60e3DXqCdxB/P1PNq9Y57GhX2uRVRINBxKRGrSb5fjKDaJbYGbhj6AO0cVPm/z3CmMEcGRxhonh2p/tdocLmTkukWgNFAoBnbwx2ntlaleZB2+H6Lm9W7hV2prkcJI4Vu01a4F0mTFLjs2x5e+ZBytRAbtXHRKQLGRrHXCfHDb6UG6Ak+pUMvRIo5PK+WJCMeFN3y6CmktUhDZl1YUulkpnAycobuUQTNMUeC67C+kS3Tw4MG6FitzHOkqZQRo9+7ddWQp1yX8S8Hs2bMnTjvtNC2S7Muk4NB6ZHQp90WR4rYpnKxSQ2uW/XhsnEZh5XLHgkLLCFr2lxJGxHJdijbPgYULWBbO7GfkZ0ABZH/qOeeco4/nn3/+0cfG1AweJ/fJKFoGGp0sFi1aVODS9Rb8rDdu3Kj/lhfm47GcWnGN80KDwtWDhLLCK7APb2O1W/DSjIfx8A83YsKPNx3V7v/uWmQedwxGF/z9AtR5RulROoqeO0fsDw4IUcuV9iZXOVR7UeTHV9qcRApP3XBftFTWYUmEB/ugW1M/HVlaatRBcGnPNfLVfYhVckoLdxcV6qP7OEuik7JmSws/Fx5PacX9ePCmV5EbQXEwL84M968O8DjZaAXRcjMtKHM6G6dRMJiCYQbjMEWha9euOsqUkZxMYaAFRYFhQA4DaJgc36hRIzzxxBM6IIepEE2bNtX9iEzHYDoHLUn2QTIlg6JDcTL3S2tsxIgROsKVQnjjjTfq9RkBWlxQDtcxYR8nBfj+++/Xlt/TTz+tI00ffPBBfYxnnXWW3ifFnWJPkeTxhYeH48knn9QpJQwGooDzGNiPyOhbWsAUac99nQj4sMFIXR4r+3a9CR9O+HnwAYbu7co5N7XNE/yZHQ9aect2/aOLmRfX/tk6Wwnn8etMuq9X400VpdqLIgNQ0nJK56LktUZPjhbREpZnAA6rw5TG5WTCJc1mUobVCzjeKmXRaaLPJUddhMb7ssCLlzd4RhDyhs4ctONZHGWFlgXFgwEr3A9v3if6BnoseCwUo//++08n6TPtgGJowvl0EX799dfacvvggw90QIxpnQwfPlxXh2GqBR8qaGGwD5HL8FyZK8j5TO+YP3++brzRMgqV7lVeg6YVxxxDJs0vXbpUiyvzIz3hd0VBu/vuu3WqCPdJS+nzzz/X2+Tx8bPmNikWPJZ58+Zpq5ciz3NhriEr9jDlg8fCfk2KGhuPm9vh/hcvXqzzLwktyGuvvVZ/RhQjnsvff/+thd4sh1fZmNcMI3mZe8lj4+fKXE9+P96EbnEKLkfw4F8+LGzdurVKXbeVBa8dRpAW305AcNAJotqLYlmgUOVYXEjOKNlXn5Pv7ocrtZvSS9B1S/frrqSSTbu/1ttRWsOPp0fXbWx42SpI8OZK64CuPrr56ALjTZZJ27RMvAlvWCw5xiopzHtjWD8tJ8/gkpMNrT6KDUeUKC6whDcKuhi5DF2OJubxcx5FkI2WFbdnWph8ze2a89koMvyczWVMKDBcn8twX5zPfVA0PT8rHiPncztcltvnezbz+zOX4Tyzv4/b4Ll4rstjN+dxXc4zj9PcFudxG57zuF1z3omAIs6iAbxeWXGIKSuE1xStVkbwFm2sSlRcozVcUqNLmpYixZbnzG3zYYXu7TvvvBNbtmwplbuW+X1LdszDvM0zMX/LH4Uara6Vu/9FVr4x1mIVURpGhp7WfjSGdjij2Dai01m6dNux4GeWnJmARdtmY8HWP4869783z8CafUt1jubJpNqPp8jxBjko8NZ4Z6nclbSe6kX64K4xgRjU3r/QNcf70Mx1NrwwzYrgMtz/aa0yfYLRogyOIT/8Z8WH8216m6WFrs5B7fx0JGxY8JEjo4WYmu3CxF8sWrBL8zvht8qaqBf2DcBNwzi6gzHjGNASpIXw0ksv6Tw6utUIb/azZ8/WN2XPy6Wk16Q073lzZlg/XVG8yVMkeFNhbh+tFPbbeUOIa9J4ihQufnZ0zTKRnq5MujDr1at31GdcXaEY03NQmvEU2YfJCj68Xj3Pn8JMd665LufxszMbOdZrYj4wEM9p3BatZT68eULXNl3ctOyPxX875+HF6RNwKOOgEpujz4370tPVfoIDQ7wynuKKPYvxysxHcCBtL6w2C6bdtQyHc5Nw95dX6mGl2sV1wTtXf48/1/+Cl6arB2C/QPRpNQhPnf8m6oTGGlspH57jKdJvRVdscVjsFgxoPQwTzn4ZjaKbGlNlkOEyw3y8L/6x4uMFVj20UmmgiLWs54MJ5wajY6MjF/4/W+x4blq+Fs6y4C1R5BfBbY3s4ocHzgouSPxPUML/3FSO9ehwu35LAYWUo/jfNqr0o/jTDXTDDTdoN5jnZcFcu4EDB2rhIua84/0lx5rHHz/diHT1cbrZ90Vrgy4w9r0xl6+i1MRBhunSpPXIhwha9p6fa3WnLKJI6Mlg3+kff/yhvQ78THgN0Y1LNzM/G89GTEvbc5rne8/mOY+wzB+H3WLfLWGAEq1FPtwxj9W0sEtiiRLFF357UCey0wIrCi1EBqSovdY4UVQfIqyO4gtPcJDhAW1G4NFzKIonb5DhGjHy/sKtDjzxk0VbUKW5+ZP0HGVhXhiMc3q6BcOhPoWnf8nHgs32UguPibdEkTBitGtTPzx8diCa13Vva9lOB575NR/Z+S7tZi0NFPa4KB98enOIEtfSrcSbCftlfvrpJ+2GMt1BzMujBclEdRMKmvkkzddmKyusu0m3F/fD/po+ffrosmPsw6QbzxvURFGsyZRVFE3Y78uiB7x22f9KkaJ705t9m7xOb7rpJl2uj4FRFEHuhzmrnu7zY7Elfh1+XP4Z0nNT3C5SD/g+IzcNuw9vR641B6FBoVVCFJ3KutsUv8ZwbR75nVPoaNVxpPyi52JiiiKHwmKUadu4jvD3PdoDRLHs2Ki7HlcxNryeMVVG3i8XtPqY10dxKi10tRYVv0A1rUxl4ioB7p7H5Xkc7N/ktLIcGvsT+7XxQ2gZasHy5sPAi5dfflkHczDqkVGIfCJmVCTdnbzBsNGtyeXZKI7lEUTmtt1xxx16ewyQeO655/RN7ZZbbvGaIAoVhzd7uiPL8x2fSOi+fP3113VwESNpWcC8aN9sRaEo8kGO0b0crJneDAYVlVYQSRslCnePfgJPnPcGHjv3tUJt4gVv4+rBd6BOmBKiKpS8n2/Pxxt/TcQzU+/Fs9OOtMd/+h/+3TZHfS7Hv/nanXa0rNtOV8V5/LzXizn3t3DVgFv1uZ9MaoQo0job3skPwUHaOq/10HXKh+vrh5auL7E4aLGx2PMXX3yBZ555Rg9L5G14g+HTNm8sjLi8+eabdd/YiYaizv5SCnFRq4RCQMuFLuSiNz7OY4AJ55nNDEIxHTDmusdqXKe46WbjsXn2b3lS3Pa5PW9YRzw/9iv//PPP+OSTT3S0cEnHUZVgdSA+2NGa86aVSPhgyHST1157TYuhGVRUFugajQh25+UVbczTYw4fR7rX11AVuZ+51L/kzEM4zOGiPFpSVoIuMlCqUT3U+XB0fp4nq9YUPXdW+mHJuZIszhNFjRBFMrKrP/q19pdanwo+HF83hEmyFXuy502RCdpMMGe6gbdviLx5c7scpojieDLgTY5RhQ899JB2i9HtZgqjKQoUBKZj0HqmkHO6uQytWwYEMf2CLjS6aNkny3OjlUKxp4uNuYfM4WOOG125XJ7T+JrT+JrTuCwT4pkewfd0LbOfl0XGeaye8PtgwA2tbG7bPAa6n+nu5jHyWMsL1+X5Mt2C/XPMK60Ookh47Ez18fbxcnuMkubDUOVBMTz5alhI6NTnGanEOlyJlmeLDI6Ej/pH0SwNLgbbVBGhL4kaI4pRSgDYP9gkxkcH39RWWMbujO7+uKBP+a3EovBGcLyIuvLAm3aDBg2MdycHnhsT7NmX+u233+pC38xFNG+mDO9n/xartDC3j0JHcWJS+AMPPKCDhBiOz5QVjmzBcQtZBo7WFS1GChWLfHM+S7iZEYvmNKakMAeQrxlx26NHD50PSCuEQs1tsk+FAUcUKE9442eQCdMF6HLmwwu3QTGgpUQho7VREWEktLZoJXM7NSAEoRqgvi9v/XgNfH2NPv9Sfn0+avn0nFR1zbmtjGD/YDx/0Qd4f/wveO/anwvaZzf+gTO7X6gs22PXwTXhMXj51LxOjRFFcmobP9w2MgBxkaUv6l2ToIXYOs4PNw0PREDprtFaD2/ybKwww1JrFEcmupvzGHpvDhFFETfFkpV4aFVS3Ggp0qLjkEkUMPbL0nXHQCVGP3IeoxNZCIAWMSvN8DWX51+moHA+rTyWamPAEcXRnMZ9001XnCBRoPlgQZchl6cI0/Kkhcvi4mZEr/tmdHQrad7xKG45z/WLm8/PrqR5tYnc/Gys2L0ICzb/iX+2zCrUFm//G+v2LdOD+nprPEWbw4p/t87RQ1Zp8dLbLFkdOYcuTI6VuCl+nQ6m4fumsS3Rsl67Qq1V/Q6IDo3V1uLx8FHff3puGhZvm6vHbyx67gs2/4FluxYi25JprHFyqFGiSIZ0CsBtpweivhJG9q3xPlLy118z4DkyevaU1n546dIgxITX3htOeaEVRnGj+LAWKUWFViKHdOLgwiy3RiuRN3bWBmW1GIodA5G4LMWHFib79JhOwps+t8NoV+Z/cj4bt8Fmvmcz53NZHgfFz3Mdvi5OEE04j+txOR4L35uuVr6mmNN6ZbUbRnRShOmuZUUbugEpnixFx+LjFGVavrRoixMunj9TQPgwQLHm58B9cRr7hjmNJeMo+JzH/XM73BejNLn/K6+8UluzU6ZM0euZDxq1hQ3xa/Dqn09g4rS78cxv9xZqT/56Bz5dOBkpWYkoLoexPPy68it8+99H6nP20wLXMLKx+s4C4eMq/P1ynrt/L0q981HilI7Js5/S0bDewN/HHzsTN2HSH4/h6Wn3HHXuj/96O35Y9okuXHAyqZFX49BO/ph0ebAu7M10BP626VakSLJVd5Xk4fM8aA3zXskHgOtOC8CT5wfpouJC2aGoUPh4s2aJMAYWUSxYBJt9fBQbQgGgJZmUlKSLXZviY0LBo6uT0ymKXL8yrSJum8LCaizsd+SxTZs2Te+f/ZIM0iEUbAq8Wd6NrlX2X7JmKWucsgQcj5eRlRQyFgQoGlhDceU0umiZNE+Bo/hRQBmUxQR6up85jzVYKcSsNmMKIz9P9s9yWb6+9dZbdaAQP7PahNNph8Waizxrtmo5RzWOPK8enbxhJGJrwnp8v/QT/T261Dbb1u+IKeN/Vg/OdbEjaZOexhJtuWq/TBUZ0Xks7hr9lA56cajvhcE1r/75mI4+9QZM3C/unNl4DCw8zuvlZFJjH9GY4/fUBUF4TAnFqK4BaFLHByEB0I0/QRbsLnrRUTiZJ1jWZlGN6xaFKSLlabrryOPgTFE398dZTOyPVQJ4eld/vHZlMK4eHFioCo5QNswfIq08pqBwdAsWvaYrlBaU542by9LCotuSQuH5I+ZyFCK6QE/UzZ79igwSuvjii3HppZfq/kzWTqXlSUuTUJRoDVIAmfjPmyTdwhw5n+fHOp6czgAhWoGsNMR8P54fYb8il2dgEfsw2WfZokULfY60CJn+MHHiRL0tPmCwPCCLnJtWN61YDjX1wgsvFCxTWwnyD9auSA4hdbQ7sj0aRTdDoF+QEqyKiYPVYcO/2+fgYNoeLUbNYlphwjmTEBNWH6/88Shen/WUtg45qHF8+j48MfUO/LjsM4zpegHGnXqNHniYN59/tv6FVXsWV/h4uD5HAWlet81R563PXX0eHM0/QBcuOHnUaL9FeIgP+rb2w0NjA/HaVSG4bkggrjktEGO6+aN/W391obiwO9mpTHondqvWop4vBrT1K3Mb3N4Pber7Ii3bpS5AJw6mOrWI9Wzmh17KWi1L69PST10gPjicqY4tSR2XapkWF9rE+WjLd2A7P4zt6Y8bhwXi+XHBuiRcozq1y/1UWfBGzQIFrN5DK2jnzp26n860Ek0oBKZ7s+hTLcXHnM+/lS2M3D8Li9PyYzFvNgoRq6xQ3Bi0Y1qqXNY8F4oirV1WgDHHRTSPlcLI1Bhan1yHVieXpSDS8uOoGAy84jx+BqyERFcz98u+Vn52v//+u64Nyn5X8zPi3+O5gmsD7Rt2xQsXf4iPbvgdH1w3tVBj4MqEsyehYXRT2Jn7V4GPKj0nBYt3zAOr5lBozup+MVrEtsELvz+A6Wt+1NvmyBYURibn51iy8PLMRzB15Te4auDt6Ny4u74meHdZvXdphb83h7KQKXyvXfElPrz+t6PP/aaZejT/ehEnOfjO+FvjYfDNRX0DcEm/ADx0dhCmXBesi3+/OjMfr6j25ux8XHiq2+368mVla69dEaxrjP61yY7X/7Ri8l9WJGUBL6l5r6p5ZWnvjA/GJf0D8Oc6u7p48/HC9Hw9ev79Z6r9KIvwpUuD9YDD5/YOQHuPEnVCxeGPnmLB/jZGlbJ/jcE3njcDvma/Idm+fbsWGVN0CF+zz5GFo2kt0vqqbCjmtOLoqmVBBIoYXaM8VooYhcvzGI8Ho2ZpGdIty/PjOTDgyNwWBZLb89wmi2xTCCmKbLSyOd4kA43Ksu/aQKiywMICwxESEHpUY0AL+xIpUhXFYsvBrqQt6pVTWaYt0LvlQKzdtxxr9y/nhazE0IVBbUfi8n43qQfyAfo6otXIYuVZlgw0qdMCAf4Bam0XNsevc2+0AvB6ZEWbMHX+jGYteu6hAWHw9z35EYK1+q5KD45NPYyxJBrTODhYcXmxWF1IyXLhMJuy8ujBZ9WcsjbCvsJctT1am/rY1N+Y8CPzhcqDlgwLSbNgASNJiyZ/UyRoJfFmT7ch+x5NF6Put1E/fPbLcYR9M2q0sq3FolCEeCw8dlp95nF5wvcsVsCRSngOPC8ux3UpsDx+RspSENkfyWIOrC/KYcSYJsL+Qy7Pc6dVyWoykydP1qOc0FJkY4k2Bu1QZEUYTzwZeenqwT9HG5v+PgFKiEKwJ2VHQWRrkzrN8cjZr+DWEQ/jjpGPIjw4UluUWw+t05GqbeI66XXU1YKEjH3Is1Z89ApapUUuxSpH7TY11O+Uv1Uz8jlXWY7lhdthKTaOTMG/7N8r923APC6zGZOFyodiwRv9VVddpSNLi4oJn6bpamQ9VboHX3nlFR18QquI0znkFqMqKYi0Mk+EINIyNKvZMMiH1hxFidNp7fJvUXgetGTpHl62bBnWrFmjj59CSiuPeYmMruVDApdlHyVH5GCQDLfJnEgGy1BYmQ7CxH72M1JM+flRCFlAgG5drl/0cxRKhncObzxE+KkbG8XP5XTp/sGQwFDkWDLVw7ZdyZx6KOII+CHucoq0UGnBsjpNeGAEAgOC3NVllNXKry4nP0svU1FoBXvh1CqVip9lDcKb35XcA6oHvPlQuOgqpJgQ3sB5k6cgeL6nxcTXtKpY1YQj1NOlyAoyjPRkwj0tTLpfGaFJK4yCYMJ1uR9zO0XhsXCfdIN6rncsGExDi5VjBzKlhI1CZw5obBZx5z65b094HjxmPgC8+OKL+rjpdmWQEdelNczPhvvgMXF9Ruiyb5F9luPHj9cVdRhQQ5HkcvwszMo6LD5Aq5PnxfPh6xNtNVdF0nIO63w8jla/cNtfhdqSnfOxMX4NbA6b/twqclNiSTUW4fZVDykp2YlIyjqkC26HKdFTFyD2HN6OSTMf1QW7P5g/Cel5KcqSc6CRsiDZr7c5gQXA+f2pxZWwHm+8xOPh5+uLg2l79ZiRi7bPOercF2ydhfX7VyhLVsZTPGl89a8VC7eop1j1pfurdu8ZQWjToHzPCTsSHfhikQ3xaQw/hw7wue60QPWkZSxQBnYlO/HZP1Z1Abm/mm5NfXHj0ECElnK0C6Ewxxolgzce3uwZVEJLiyOCeML5FEumGdCVyDQMTmOjRcQUCJaJo8CwT43BJizt1r59ey1EnlAYGNVJy40J/Pqm5wHfM/KVFihFpzRF0dmXR+uMx2j+lCk8zZs3R8uWLfVrTudy3D/3S7enCc+BQkwRZWoF55lWIdfjOub58dxpAXIdRqAy4pQRuNwP1+NyHFbJfJjg8fNzoNXJvk7O53kVHZezKOUdJaO6sHLPEkz5+3kkZSqruphcREaK5ubnwOrIV9Zd+YeOik/fjzu+vASJmQnaLfr4ua9jcLuRePa3+7Qgcz+0/iieLChAP6vNacPdo57EJX2vx73fXo1lO/9Rx+iPIR1G46nz3yqXtXhk6CgOfcfyk1FHXfuEqSh9mg/E/05/FA0ij5R9lFEyBOEEwpszb8K8edMKKgrn06XINAKmIJg/ZlMw2L/IXD2zTilFiIJBPMWH8OZO64siUtxNgdukKLNYAPsCSwOPicn4tMxo6bGxDiqtNx6fKT5cjkJX9Ji4DI+LfYKmhUfr0hRTLs/oVK5LQeQ0CiT7G3m+3A+X5TQKJKdxO2zsh+RnS+heZg7o8QSxNmBTYpeafRiHs5KKbYwatTutFfZc0dob2+MS2JXVmW/Lxy8rvtRCfOfpT6BtXCe9ffbxMeqUgshLcnSX83Bmt3H4Y91P2JqwwX29qOmnthqi/lT0iFhpzK6s1uRiz5stPS9NXU+l85JUFiKKQq3HvNFTIIqD82n9cBlPzPVopfEvc/04CjyDS2gRsdA5LTTPPr1j7YdQYLiv0gqHuf+ireix8n3RaSbm+ZW0Lo+X0zyPie+5rOe58LW5DTbP8yjredVk2E/H0TBCSmh0U/roUL2KQeuQYxdGh8bAX+2TuYbvzZukrb1nL5yC64fch94tBqBJTAt0bNwdEy98W4+fuCd1u66Ak5GbqgWxYVQTjOx8drEPcmWFlnFx52y2IJ67F/ZTEcR96uE+vfuMILQT92mN40QPMmxaWfxxF7XMhONT092nOgm+hLsur5l1+1fg5RkT1H1gGyKCI/DBdeUfZJhBNV/++zY+XPA6AnwDdB3U05U1eMuwB1EnLEa7M2m9USjz7XlKOP9Ty7+LLQnrDSvRBy+P+wh925TfUjTdp3SPDmg7HE+eN1kPj1Ws9KhdFN2PuE9PIJ4fPb+etNyK1mwQBLfblDdyEUShOHjTp/gV1/R842+JylkGmPdHd+iITmOVCDnBsRz/3jQdN3xyDp789U58vfg9vD33eUz5+yU88cudeOj767EtcZNa06WF8tyel6Fni35HCVX54XaOnOdRzWv7KT+1+lfL/D9dC9WA6RRVAY667znyvtxbBUEoL/UiGuL60+7G6K4XaslhZGtmXpqOAmXU6a8rvsAPyz7C8l3/IMA/SPdB1o9sgItPvQ43K4uSZelqE7XydsuEfXc5NlZ1cD+3UBu3JTixJ8mJY3T5lBp6Bsr6nMdjSc1yYUeiEznWI+KYmu3CtkNOXa+1Ng6JJQi1CboV3T4rjyfjCkCPRYu6bXH7yEdweb+b0at5P0SHxKr7oFW7VymCdnXTo2XISjuntR+Fx857A7cMf1APJFxRtPXnnVM5IdQ6UWQ/3U/LbXh7thV7DtOd4J5OEftrgx0fzrNi5lo70nPKKmmFCQks23XAyjWLttnx0T9W/KqOj3VUTVHcl+LC54ts+G6JTfddijAKQs0lwC9QNz5WU9DMgX4rSlRoHdyshG7i+W/qkTAu63sDxp1yLcb2uBQ3DXtAieBDuFtNf/CsF9CrWT917/FOXy77KinAFEeni0FcFbu3Vja1ShRTlND8tMyK31fZkKwsMtNFaQ7BFKCugcRMF6ap+WwZueX78ritsgTFcPm5m2z4/j8bNh906pJzrIrD6Wx062bnuTB/ix3TViphVFYjx08UBKHmUS8iDnFRjdRv3wWL1YJ5W/9AHvMIvUS9yIYY2Xks7h4zEQ+c+TweP/c17V69vP/NGNPtAsSEFc7VrQip2cnYcHA17EoMaf3GRTZR97aTX9/0WNSa6NMsiwtfL7ZhzR6Hfk7hWbNP0a7UhaNMsMRbnuGy1J+I+ju8kz/O7RWgBE5v4ph4Rp9y3TO6+eP83gGl6g9cvdeBjxdYtXvU3L9VCWOQunYCVcvJVyKppnNbFPC2cb648BR/tGlQs6LyKosTHX0qVIyaHn16PCgeL05/CL+s+AKhgeG6HNupLQYhUll63oSBLe6/vl7PDeS2rbZ8bE/ahL2HdyhrMR9puSl46eIPMbrLBQX7Lg0nOvq01oji9kMOvDDdqsWFqhgWAgxo44/uzfwQFaq+QDutSJt2VeaxGLe6RjheIUfV4JBOx/sKKyKKj/5gQZJhuVL0IoJ9MKSDH7qpYwsOAPanKut1pRWHs9TCahke2ymt/HDL8EB1cbm3IZSMiGL1oraLIlmzbylemj4Be1N36BHrdQ1T/ThffTCHpGK+ZLYlGxedcg3+N/JhRIXEGEuUDknJqATojly9R6mN+k9riPofLcBxfQPQvqEvGkT5oFmsrx5vsXtTXy1M7GtMzHAigSJXidfiku12pOQcEcSYMB9c2k9ZqH0C0Kq+r7ZimfN4y8gg1It0Byyz8bi0AAuCUOPo0awv7jvzWTSp0xJ2F71bxf/Wj5fKUDC/hKfnypzPwB26SinoVwy4GbeMeLDMgngyqBWWIgfpffbXfKTnKgtQCQ8HBL5mcAAaxxz9TECheXG6BRYrkK/EdGBbP1ymrMWIkOIvCpPyWoq0TudutOs+QkafchDhawcVbwGyL3TGWrWsOgdakxf39UdfZe0e+8gEsRSrF2IpHiEx8yDW7VuB1cpytDuPBNww/3Bvyk6s3btcB+NEh9RB9+Z9ERoUpvsiKUgZeWlYtG2OfqiPi2yETo17ICQoVM8nrEU6d+N0dT9xIDwoEt2bnYqo0Ght4VHIWG6OFqvFmqcDf4Z3Okvf2wi3n5OfrQt4p+Yc1tvkfFbqoYDzPV9zjETmOfZlmbgShPV4iPu0EsjMc+GpX/KVCe/SQjdICc+VAwJ1hGhRkjJdeG6qBXnq+qOFeaqy0i7vH6BdrMeivKLI4Jr5m9yiyOCakV39cYFar7jrZ8l2Bz5fZNWiGBbkg3Gn+mNAOxHF4yGiWL0QUTyaordpCsz0Nd9j4tS7lEAGYESXs3Hv6GcQExarl+X8ZbsX4K4vr9TvB7QbgQfOeA4No5u456t/aw8sw71fX4M8ew7axXXBC+Pe1yP+m+tTECf+ehcOZyciPDgKX9z0p66nas7fcGA1Xp45AbuSturUjun3rEDdiDg9vwB1c+K+KoK4TysBWmCZykqk0LBPka8ZeFMc7FvMsPCiU29Uy7e5+xePB5dn01tV/ytNXyLJznc7RriuRQkxcydLIiFdqaEBA4Qo3IIg1HwoQp7NnGZC4Sk6ndNM+KrQ/COzCih+/SMLmtsz5xfFc/2C5rF+daFWiCJTGhpGs0K72xrbnezE1gR3FKonnL9yN4c3cb93KjVtGuuH6LBjf7FWJU6JGS4talyS14YehT+7ZIEz6diQA4G6X7NfkWkgDLopCkvQLd/FUQ/cIh+tLNfW9dW6xnxBEASh4tQKUQwN9MGwTv5asSg8TL2Yvc6OuRvsurJNRp4L+1OcmLXehllqGkWUAhkd4oNW9VnU2dhQEeheXbffga8WW/HDf3YcVmJGQeU+6Or8ZD4Ljtt1X2ZJdGjop/dHsWNwz97DTnz+jxWr9zi0OKbmOLFXHdsXC206z5I41bHVCWOVilrx9QmCIJwwasVdlaLWvbkfGkcx9cKdpB+f7sJvq+34cpEN3yy24ZMFVny/hMMDudeh4HVu6qejU4uzxihMy3ba9XrztziQY3UViBuhwG1LdOKThVb8usKGjBIq5MRE+GB4Z399TFyXoro53oEpf1vxuVr3q39teH+uFesPOLRFyWXqKCtxQDu1QnEHJgiCUM1Zu3YtnnzySd2fSK7/33146vlXsXY9i5VXLrXG1KCQjO0VgPqRPrAo4aNoWZSQbT/kVOLmwL5UF4KVRUmhYeJ8sxgfDGnvr63Mo1DCtGqPHT8usyPLoizRALdYsQAAofAyypVC56/Mxn+V1Th1lU0n4RfH2T3duZAUb1qogRzHSm2K1W1W73Xq4B/2hbJvk67TsT390a/N8XMnBUEQqhvff/89Jk+ejP379+uxSIODg/Xf/Qfi8eaUj/HDz78ZS1YOtUYUKTi9lfBcMSAQbeJ8C4SLrk6KFzELbg9UgnPLiEC0U1ZicVjsLvyx1oGsPBcC1CIMeGka44sbhgbh7jGBOuG/g1qXIsbtU+CYJ7lRWYBu2SwMBfq8PgEYqSzGsGB3wA3Fj5YnxZDr5KvjZZ7iRacE4DQl1iKIglC7YWK81Z6vm91BF1fhu4tTPamzkgzHMXTPLwyHkjLX5ziLBW4uA44LalXT9XzVisIQQY64wX1Y1T4KRZ2WE1qIs2bN0q8vueQSfPDBB3j33Xf1X74ns+YuqFSL0e8phfG6xkP3Y90IH13FprGyBCloFCQzd7FfOz+c0d0fg5To1Is4EgBTlHX7nZi32a6FlmJFAbxqUCC6N/dVwuWLlvV80bGxn7IMXTiQwqK+yopUQhcVAnRroiy8YrZLi7RVfT90bOSLuuE++rjybC40ruOjE/iHdvTHub390a2pn3pqMlYSSgWfPNu2bYtOnToVGileqJoEBARgy5Yt2Lx5My699FL1+1E/IOEo8my5Wpg6NOqq7j2nomODbgjwP5JnlpmbBof6175hV3Vf6a7uU10RGhRuzKVHKx959jy0jeuEzk16okfzvjq30MRPfe4WWx6a122tt8H5YR7rU0gphk1imisDogsGtx+lR86vCFOmTEFmZqYWwNGjRxtT3bRp00ZbjRs3bkT8oUQMHTzAmONdau3I+7QImW7BvkOKIuuMBvkroTyO4PDD+mqhFQu3ObQ1RwG7fGAAuiqxKqp1DLB5bmo+MizutA5Gi15bQtEAT3hMFnVsZv8nrc0QJZpmVKxQNiRPsXoheYqlg0M+WZSoMe2BI+hTkDzTJdyi5b7emWwfpASPf02YtG9Rwko4PTggtND6lAYtvMqiZL8SBdPP98h3wfVphbrn88E+vND65YF9iHSV0jIsiZtvvhk2m63Schdr7W2WAsORLJiUH6uELTz4+IJowkLi/Or5OMH16oYXH4xD6y9GbZvLUdhYPICRrseDQsiKNTyuyBD3sYkgCoLgCUfRZyWasKAIJVjBRwkSq9BwHltIYFghQSQUOM/5Rdfn+1A13b1MeCFBJHx/ZH5EhQXRhKJ4LJo3b268qhzkVlsOWCHHlDb+pcVYEseaJwiCIBTGbqYAlMCePXuMV5WDiGIZ8VEix6GbXOqhiF0daTlObImnG8FYwAMOYrwnxamtRIojLb6o49RQFQRBqK00bdpUi6IZbFMUTuf8pk0aGVO8j4hiWVGa1qGRn3aJUt4ycqELeq/Za0e6siDZD8jo0X1KDL9dwtGm3bCfkME9DJoRBEEQjuaCCy7QfxkcV1QY+Z7Tyflnn6H/Vga1NtCmIjCP8ZP5+UoIndp9ykCd0ECgWV1ftFSNQTX/7bDrvERak7QSaSEyVaNPK8kvPNFIoE31QgJtajeegsj+RTZah6ZbdfSIIbj4wnP068pAzJZyEKh+oxf3C0SDaB89xBTzCZnjuOWgE9NX2/HnejtyOYq/mm5jBKmvD87pJYIoCIJwPJiOcddddxW4Ui0WS4HL9M5br69UQSQiiuWElt9FpwagazOPQgDq0wz0d4skh4KiINaL8tEVaDguowiiIAjC8enevTsmTpyITz75RL9n+sVTj9yH7l076feViYhiOWGKRJcmfrh+SCCuHBiA9o2Y5+MWRKZSMCeRRchvHhaIUd38IR4gQRCEqo+IYgWpE+ajq81QHO8/MwgPjg3CHaMCcaMSwwuVJdlKiSOFUhAEQaj6yO3aC9BqZGWb5nV90aKeL5rE+KJeBBNfjQUEQRCEaoGIoiAIgiAYiCgKgiAIgoGIoiAIgiAYiCgKgiAIgoGIoiAIgiAYSJk3ocbDMm/nnnsuxo0bJ2XeqgEs88YSbyz3JWXeBI6xWFljJxaHiKJQ47n44ovRsGFDDBkyRA9OKlRtgoKCsGDBAj1E0E8//SSiWMsRUawB8Afdt29fBAcHG1OEk8lrr72GlStXIjY2FnK5V304WG1KSgq6deuGBx54AL6snyjUWkQUawADBw7Ezz//jAYNGhhThJNJWloaMjIyjHdCdSEqKgp16tQx3gm1FRHFGkDr1q21tdikSRNjiiAIglAeTrQoil9CEARBEAxEFAVBEATBQERREARBEAxEFAVBEATBQERREARBEAxEFAVBEATBQERREKopLFmXk5NjvBMEwRuIKApCNeXRRx/FvffeC6fTaUwRBKGiiCgKQjVk3759umrSt99+i+3btxtTBUGoKCKKglANYT3XhIQEZGVl4aWXXhJrURC8hIiiIFQzaBmyjKDVatXvZ82ahU2bNkmxc0HwAiKKglDNeO+997Bhw4YCEaTF+Morr4goCoIXEFEUhGrEmjVrMHfuXNjtdkRGRupRJCiGnLZs2TIRRkGoICKKglCNYHBNamoqbrnlFlx11VW4/vrrcdttt+mBeT/99FMRRUGoICKKglCNOP/88zF9+nRMmTIFzZs312N2Tp48GTNmzMDNN9+sB+gVBKH8iCgKQjWiV69eekR6wohTh8OhhbB9+/Z6noiiIFQMEUVBEARBMBBRFARBEAQDEUVBEARBMBBRFARBEAQDEUVBEARBMBBRFARBEAQDEUVBEARBMBBRFARBEAQDEUVBEARBMBBRFARBEAQDEUVBEARBMBBRFARBEAQDEUVBEARBMBBRFARBEAQDEUVBEARBMBBRFARBEAQDEUVBEARBMBBRFARBEAQDEUVBqEakpqYiOztbv/bx8YGvr/snnJOTg7S0NP1aEITyI6IoCNWIr7/+Gvfeey9mzZqFvLw8WCwWzJkzBxMmTMC7774Lp9NpLCkIQnkQURSEakR0dDR++uknXH/99fjtt98wY8YMXHXVVfjoo48QFhZmLCUIQnkRURSEagQFcPTo0YiPj8eqVavw33//ISkpCQMGDMAdd9xR4E4VBKF8yC9IEKoZV1xxBZo0aWK8A2JiYnDzzTeLIAqCF5BfkSBUM8aOHYvevXvrQBvStWtXXHDBBQXvBUEoPyKKglANuf3229G4cWNERkbioYceEitRELyE/JIEoRoyYsQING/eXLfTTz9drERB8BIiioJQTfnqq6/w/fffw8/Pz5giCEJFEVEUhGpKixYt0LFjR7ESBcGLiCgKgiAIgoGIoiAIgiAYiCgKgiAIgoGIoiAIgiAYiCgKgiAIgoGIoiAIgiAYiCgKgiAIgoGIoiCcBFwuF2wOm252px0u9c8Tvj/mfI/12fjeEy7P9QrmF12/6Pwi6wtCbUVEURBOAlsOrcPg51pi6AttcPc3V2Jfyi5jjpv9qbsx5pWuGP5iO9zw8TnYmbhZTT0iXHvV8pe8OwQjX+qAC98agB1JReYn78Ctn16IES+2xwi1zM7ELWrqkfkJafvxwPfj9fb7P9MU6/av0EIpCLUdEUVBOAnQMHO6nLq5XA5jqieugvl6maMkS71XGzHnF4XLOss0XwRREIiIoiAIgiAYiCgKgiAIgoGIoiAIgiAYiCgKgiAIgoGIoiBURXyO/dP0Od589Y//lQRHm9LLCIJQCBFFQTgB5FlzkJOfpZvVboXFmusWJRfg5xsAm8OKfFuenp+bn43svEwdocoF/Hz9dKSp1WbR8y22XGTmpsPpdEeVcjxFf7VMntqme/v5yLSkqW3m6/kkKCAYucYxWO0WZOal62PiMVAa89Q2uR7nm437EYTaho/6sUkstpdp3bo1FixYgCZNmhhThNrI1kMb8OOyT7Ht0EYtRCaUIasSrMNZifpdcEAIIkOilfj5q/funyMT6lOyk9Q7FwL9ghAdGqPF0cSmhDUtNwVOlwO+Pn6oGxGn/rqfcbn9fCVwGXlpsDtt+n1cZKOCwYj5niKcrubzL9U3Vq0fpPZjJn64XE6EBIahZ4v+GNhmGLo374sA30A9TxBOJNdddx0+fvdV413lI6JYCYgo1m5ccGL2+mn4+J/JOJSxv9g8QQqTKWL8CTrVP08oXxQ7QqEqug3P9QnFsegPmfO5HHEUyYU8en13LqQnXJvHEBNRD9cPvgtjul1USJgF4UQgolgDEFGs3azbvwxP/nqXsgQPGa7NAAT4BxYIVHWAAmmz25SY2rVbtXuzU/DAGc+hdf0Oam71OQ+h+iOiWAMQUazNuPDNkg/xxuwnERwQiiD/IAzvdBb6txmOQN8j7smqDMWb7ttV+5dgyfa5SMg4iLz8XFw7+E7cMOQe7e4VhBOFiGINQESx9sJ+whdnPKzE5G/tEr3+tLtx1YDbERQQZCxRfWB/4zdL3seHC17VVuOoLufj7tFPIja8nrGEIFQ+J1oUJfpUELwIhSQnP0NbhLSoOjfphcCA6hmgEuAXiC7q+EMCwnRfYnzGHuRYM425glAzEVEUBK+iQ2T0K+2EqeaOGJ4DI1HpFvYM3BGEmoqIoiDUAhidKgjC8RFRFAQvwlRAP1/fKhVO88W/7+DRn27FD0s/hsWWZ0wtGzwfdxUdsRSFmo0E2lQCEmhTc8nKy8Cm+DXIsKQXyvMj7HdLykzAj0s/waGMg/D3C8AL495HvzbDTprb8eUZE/DH+p+Rm5+DuhEN8NBZL2Bwu9MLEvmPx4rdi/DwDzfqijet63fEOT0vRUx4/aMsT+Y5RgRHolPDHogKrWNMFYSKI9GnNQARxZrLzqQtmDx7oq5Ww0CUojidDl1ujcnyFM2TKYpTV32NKXNf0OXdWC3HoY6tSUwL3DXqCfRtPaRUx2SKotVh1ZV1WC6uOEFlgBFzGO8a9STaNeh8Us5XqJlI9KkgVGEcTjuyLJnIyE0rtnEeraaTLQnrD6zELyu+RI4SRF+jCg0t2T2Ht+OrxVPgWXautFD4WDO16DmbjefOsnKCUJ0RURSEMkCLKyI4CtGhsboeadHGGqb+fv4ntU/R7rDj15VfYnviRvj5+MHfxx9ndLtAW3i09tbtW4HX/3wK+WUURp4Xz6+48+bnwc+F1XsEoToj7tNKQNyntZdDGQfw9LR7sGbvUgT6B50U9+n3Sz/Gu3OfV698tNU6fvBduGLALbjv26ux8cBqbfE1qNME941+Gv1aq2M7Rv+i6T7NsWaja9NeePyc19E0ppUxVxAqH3GfCkI1ho+Y5XnO5DoH0/dh4dZZSMs5bEwtO1sS1mH6mh9gdzqVJZiHvq1Ow0WnXKPLzT1xrhK02BbaetyTtAOz1v+KfEfprEXKpjw/C7UBEUVBqAIs270QD353He7+5iq89ddzyM7PMuaUjZV7/sWm+NXw9/VFVGgMrh18ByJCovQ8Rp9e0Odq7doNDgzB2v0rsHL3YhE7QfBARFEQvAhdkQxoKUvh7x2Jm/DWnGexXf1lv9zMtT/iw/mv6mjRssAgmtkbfkNoYDgy8zIw7pTxaN+wS4HrltGwg9qejlZx7eGjDm/f4Z2Yv+UP5Fqz9fxjwYGlOIxUaVM5BKG6IqIoCGUgIycNK3b/i4Xb/sKi7XMKtSU75ymL7x+k5aRoASkNTKb/Ydkn2Jm4WddKZR9gUGAwflLTZihxLIsVx9zI7Yc2akFuUa8t+rUeCv8iaSOxEfWVWF6rI1KD1X62xK/DgdQ9xxVxPx9/HWG6XJ07z7Pouf+zbTbWHliOXFuOsYYgVE8k0KYSkECbmst2JV4MYtmVtEUn5xeF1l2WJQMceqk0eYqzN0zFpBmPwGK3ICQwVPf3UVj4s2wc3RyTLvkYTWJbGkuXDFMhOKLFu3NfUMLqwrm9rsAdIx/V0aJF2Xt4Bx75+RbsTd6hpfDxc17D6K7nF2sFeuYpBqjzZYI+I3CLovMU4zrh9hGPoHX99mqKWJSCd5BAG0GowrA4dnpOqh5j8FBG/FGNQ0fZlSCWRhL2pezCT8s/R3Z+Nqw2C87sfpFOrG8U3VSvn5C+D18teU8LzvHIt1q0xefLJH21/zb1O2hXbHHUCauLTo16aKs0z5qt9p9hzDk2DodDnV9ysefNxmo+FmvucWxOQajaiCgKQhlgebOw4HDUj2iAehFxR7X6kQ21dUZr7XhsOrgG6/ev0Pl/9aIaYkSnszGm24UYpaw2P2WVsSrO6r3/Kat063Hdmxy70ea0u8VYWXwcLV9JON8dBavu6OR9tTBFNCMvXVmaxxZebtcJhy7hVvy510dcREOEBkWU6oFAEKoqIopeYPv27Tj99NMxfvx45OXlqRuauz/pnXfeQYcOHfD7779LhF8NoU1cJ7w47kN8c+vf+OKmWYXaN7fMxcuXfIxGdZrryjfHgpVh/tu5QLssWRaO/XydG3XX88Z0OR8No5uoeb5IyU7C4u3zaKLqeSUREhimrUOn06n7M1NykrRLtjgcykKke5fXZFhgONrGdYG/77HHfKS1ynN/5dJP8fUtc446929vnY9nLnwHzWOZwyiyKFRfRBS9QNu2bdG1a1d8/vnnaNasGXbt2oUePXrgvvvu0zeeM844Q6L2agj+yrIKD47U1mDRFhoUjrCgyFIF2SRnHlKiOE9HqkaERKKVEjQfY72G0U3Rs1lf3SeZlZ+JzQlrj7L5rHYr9qbs0I0WIY+rQ8Ou2roMDgjCwq2z8d+OeVoki7Jqz2LM3zxT94nyAS7QXwnicS5P7t9fHWt4cIQ+z+LOP0xZiWZJOUGorogoeokLLrgAXbp0weHDh3XfS0pKihbECRMmFFiOQm3h+F6BfGe+TtJnv14DZRXGhMYWEqa6kXHq/z5aGNlH6R7o183h7EQ8N/1+XPPBmbj/22uxNX69nl43vAG6NO6lXvkgIeMAvlryPhZs+1NZm4nItGQgKSse01Z9jc8WvaXEOEBbi6e0GIyW9dqqNY6tipxbljQTQaiuiCh6iUGDBmHw4MGFLEJGoV511VViJdYi+FWXZjzFEP8QxEU2puzhYMpu7Dq8vUBLLdY8bE/YpF45dd3SehEN1HaP/FQ/X/g2Fmz5QwtlYkYCnpp2F/Ykb0Pzuq1x9aDbEBVSR6dQbE/YiAk/3IQ7vrwMT/16B6778Cy8NGMC9qfu1oLYul4HXDngVt0PejwoyRRoGf1CqOn4PaUwXgsVpH79+li0aJG2Fgn7FGk9iijWHNj/ty9lJxLS9utI0+SsQwUtVVl+ew7vwOIdc5GRm6pdoyM7n40mMS2PEhNeErsPb9MJ9wzeSc5M0FVsGCAzfe0P+GPdz9oyY4Ht/m2GoVfzfvo6+m3Nd/hx2ac6v5HBNZyWo9ZLzUlGx0Y90CS2hXaLHkzbh/Tcw/o18wsPpu1FnlqHy7vU/ji80y3DH0TvFgOPeX3Gp+/DnI2/6z7SiOBoNItto4N0GGnqee58n5WXjuDA0GKH1BKE8jJt2jSce9Zo413lI3mKXuaGG27AJ598gm7dumHZsmUIDJQbRE2CkaDvzHke2xI36bw9Tyh8HHkiLTdF9/FRbI6Vp7h4+1y89ucTWsAooPlKEMODw5Xg5SNQCYvVkY+uTXqrbXyA2PD6WLVnCV6c8ZBOvWCuYP3IRsiypGuBpMXJot83DrlHB9KwP5HjKW4/tAkZljTkWLKVJdlGi2SPZqfg/F5Xop1HtZuSOJKnmI+QgFBdLcfTajWh5dmyXjvcPvIRtG3Q6bjbFYTScqLzFMVS9DKtWrXCmjVr8OSTT+rI02M9hQvVjyRlFbGQNq28PGuOsu4yCzWLPU8LD32h/O5LshRJXFRjtWwg9qTs0OtSSNkfTazOfCVepypr7mGdDJ+Qvh9v/vU0Nh5Yg8CAIG2R3Tt6ok7ap7XJogEHlVhyEOEWSvzoSu3atLe2Hhm007vFAJzd8xIM7TgGZ3W/GA2impRKuExLkX2fdmVhsjBBtqXwObNl5qUpwQzDwDbDUS+yYam2LQil4URbiiKKXoYu1D59+qBfv37w9z+68odQvaGLcFP8Wm0ZcRzB4iIwGfFpc1q1RXUsUaS117peezSLbYnAwBDY7TYllA3RrlEXjOw4FlcN/B86N+6hBM+JX1d+pV2qjBSl+/Ou05/EqG7n6dHulyirMNeapQXrcHYSerboh8jgKJ283yy2Fdo37KoFsnGd5koMGx9l4R6LQqLotGuLNSa8nt524fOOVOfZHH2VVRyr5osoCt5C3KeCUIXJt+UhMTNB/bUc5QWgyCVmxuPD+a9gc/w6LWClGU+RVh6ryqRmH9YpDSz3Fh0So8djJMxnZKBMTn62rhhzfp+rcMfpjxVUrPl78wxMmvmIdpGyH/KGIffiaiWoxbk5y4rpPs2z5Wrr85ZhD6OpEvmieZi8jQQFBCMusoH6G2pMFYSKI2XeBKEKExQQoq0v9pu1ietYqDG1oYUSjmAlDmVJX2B/YpQSQfbJNY9tjfoRDQsEMVcJ4T/GGIsOlx09lBV4ad/rlSBG6vlkQJvhSniH6oozTiVWM9b+oEfX92YKBfspKcKt6rfV51n03Pl58HMRQRSqOyKKguBF6HdhiTdvOQ85NuL0Nd9rMWYk6oV9rlaiVLjgNkfXuKLfrVq0WB5ud9I2rNm/zH0wXoI3CkbJimNJqOmIKAqCF6FH1VvBVYwqnbtphnZVssxalya90KFRt2K337JeG1wz6HY4HHYEBYboyNONB9d4zVrkViRoTKgNiCgKQhmgODHlggEtRVt6bqrOVXQX4644dJn+tvpb3VcZ7B+MUZ3PQ/OY1sbcwnCZIe3HoGfL/sqac2J/yk5dHs5bHlT2iVrtNnV+qfo8i557cnYi0vPSdP+oIFRnJNCmnHAk8lR1k8hTN4EA9QQd4x+IwCKBDVZ1c0qy5SPE1w9h6qbF+b7ysF2t2ZywDm/Nfhq7k7cZqRdHoHAwKpVJ+L7qmmCgS2kCbUpi1oZf8Oy0+/ToF0zPeOTsl9GsBFEkLnVVfrV4Ct6d+6K26vq0HIRHz34VcaWoWFMSZqANHwboFg4PitDRq0UtUJsjH+0bdMNdo59Cq3pt1RS50AXvIIE2VRzeCjblZeHnlHg8d2Ar7t6zHg/t24R/s1IL3SZyHHZ8lXwA9+/dgGcObsWHSXswPf0Q9lpzYZfnkGoLS53lWnOQkpOsrULPxmlMi+BAwRWFLtOlehQNXzgdDrSt3wlN6hx7sGEm8Ldr2BUxYXX1MazeswRJGfFHCVh54Ba4TZ5fceeemqOsZzU9Lz/HC3sThJOHiGIZWKKE74vkfXhk30a8cHAblmSnIsFqwdqcDExLS0Ci7chQPYuz0/B+0m7sy8/T632m1nv6wBY8sW8Lfkg5qNcTqh8hASG6gDdz/o5uLRAX1UhZkH4VFgabeqj6b8d8HdgSEx6LVvXbl8rabBjZGC3qtYPT6VLinYuD6Xu95kLlefH8eJ5Fz72JmlY3vD58pfi9UM0R92kpOKTEbnZ6Mr4+vB/JtnwE+/qpp+YjN6h8pxNdQyPxWJN2aBkUpqfNSk/CU0oE/YsEJ9Cl6lAf+dCourg4tgl6hUYdtYxQdclX3//u5K1Iz0vVVqMnTK1IykrE14vf08uwBmh53aesnHPRWwOUuDnQJLYVHjrzBfRo3ve422EKx+TZEzFtzbdwqevy1uETcEX/mxBgpHiUFc88xWaxrXHFgJvRMKrJUX2HvI0EBgSjZd22uqiBIHgLcZ9WMdbnZuLV+J14L3E3stTTe5iff4EgOtQjeI66ObB/cVh0LFoYgkg6hYSjf3iMnk/RpBAS9itSVJdmpWHSwe14V21X3KnVh6CAIB0B2q/1UJza6rRCjcW1ezY7VYlC6UbePxZMv+BoF1DXCwsFZFsySmXx0bVLF6ev+keh8lbEKPMUI0OidN8mz7PoufdtPUSXkxNBFKo7IorHYG1uBiYn7MKCzMPq5sI+FfcNhiJmUWJXXz0Z3xLXEp+07oWx0az3eIQGgcF4sFEbPNWkPS6KbYhmQSGGgLpDEHh/O2DNxbeHD+KVhO3IUzcdofpDLWRZtopKUXhQuHbTEtZYTcl2j7xyPPLtechRy/MCCw0OR7emfeDPQYQrCG8Ukqco1AZEFEtgS142XlMW4sa8DAT68rnbRwuZTYlX17BIvNuqB95t0Q1X1W2KbqGRiC4SiRignvApjGfXaYjbG7TGq8274P6GrVFP3aBsfIJXy/irZfzUi9/TEvHSwW2lMQSEWgJds4wa5d/MvHSs2bdU5y0ej3X7V2LdvuXw8/PXYzGyFmtFBVoQahMiisXA4JgXlUhty89WokU5dFt2dfwC8VTTDnilWWecEhaNRkr0QpRgHguuG+rrh8aBIbhcCejzTTuhU0iE7ls055OFWSn4KfWgCKOgYbrHaR3GaOuMrtR/t/2Fqau+UpZayR4FjuX47dIPYXVY9egZPZv3Q0x4XTVHZFEQSosE2hSBbtEPk/bhy+R92kLk7YR9hjH+QbirQUsMj6pf4SeJHKcdkw7uxNzMJC2C3Af7HBsGBuGJJh3QPdRd6FmoeuxI3IzXZz2BLQnrix1Mlz8n5vRxRAlaeRXJU8yz5uHtuc9i6sqvChL4L+l7Ay465RpEhPAacW+TATXrD67Em7Oexo6kLeqaciFIXa8vjPsQfVoNLNe+TY6Mp2jVQ1vxnIvrp+Q5t67fEfeOeQrtG3ar0D4FwRMJtDnJHMy34PfUhAJBZP9hrLrB3BHXEsMi6xX7gVmVkKbbrEhW6yZacpFstSBDvc9X04uDifwPN2mjt6eeSvQ0JnsnWPMxVe1bnlKqLrTcOPo+R6worjHQhZGZ3pCEkMAQXNb3JjSq00xHoVoc+fh00Zu49fNxeP3Pp/Dj0k/x07LP8Nivt+HOry7HzsNblSg74HDYcMOQ+9CnZcUEsSg8L55fcefNxghVDjElCNUZEUUPWJ3mY2UhZqmnfN5KKE4Uq6vrNcGI6HoFgTYmtO42Zqbi3V2bcOuqfzB28UyMWjQD5/77J/63eiE+VNN35GRq0SxKsI+fO4UjOLwg+Ib8m5WG39JEGKsqtNgiQ+voMQXpmiza6oTF6hEuvPX9cYzCx85+BW3iOrkvSPW//al7tCv1rTnP6IGHF239S4sRByjmyPjjT7sL5/e+wmuRpya+6kExSp/70efNzyMqNFp9PqUfq1EQqiLiPvVgt7LyLt6+HMFGP2G2Esfz6jTEPQ3bINKv8IDBWTYbfjm4E1/t2YYESw6C/Pz0EwafzOm+Ykg+A2pigoJwTfOOuKhpa0T4H33DmJ+ZgmcObNF9jPwiuM6lsY1xd8PWXnzGF7wFR53femgDMpn24FP4mZJjIabnpOgBgbcmrKtQnmJR4tP24svF72LJzvlIU/tg0I15rbGSTQOdVN8M4069HkPaj/aaIJruU+6PAyBf0k9ZrtFNj8pTpCiHB0egfYMuiAyONqYKQsU50e5TEUUDitjbh3bh+5SD2jqkRAUpa+5RZc0Np5vTWI7YnE5M3rYGX+/arG9IfscoaEr3q7Y2W3TATW27IKSIuNI6fe7ANizIcofcUxw7hITjkcbt0V5ZkUL14lDGATwz7R6s2rvU6NfzjigS9tst270QW+M3ID03DYmZB/SwURyQuFeL/mjXoDMaKsHyJqYoZluz0L3pKXj83NeOW25OELyJ9Cl6mc15WfhJCR3LrP2Wdgg783ONOYWhC3Oezkd037yYcN83Ihq9wqKPup39cXA3vlOC6EvBo4XnYHMYzfO1A35OFxx2G77ZvQm/7tuhrUFPWCz8wthGSpTd71ndZk9+nj7u4p5W6LJdnp2GD5P24ovk/fg74zDSHTZjrnCy4SOmN8dT9ISW58A2I3DdaXfpgJbHznkVT543GfeMmYghHcZ4XRA9YQ+75CkKtYEaK4q09L5OPqhTK15L2Ik3VXs1YYd+Pzcz+agqMoesFiTbrAU3M7oxGwYEH5V/mJpvwftb1sJhczDywBA/u4cQer52v6cwZuZZ8Mf+XdiXnWls6QhtgsPQMJCjtbtvPrnKejxgPTonLcmaj4kHtmBS/Ha8pc5n8qGdeDlhu3q/A7tKEHvh5MDvkg9Y3u7X84SDChd14Xob9zn4FvuAJgg1kRorij+nJODjpD3YYsnW7kuWZ6MQrsvNwHuH9uCHlHisyc3EBtU2qjY7I0kt516XT/pxAUForcSqKIsO7cfBrEz4KEvSbRWWrgUpsduakow1hxOPusHQWmTeo/kUzi9lQ24WFmWl6BE5eIwchePJA1vxR3oi9ivBjPIP0PmPmcpK/FNNo+gne2kcP6H8uPuTnVqssi1ZpUq4r8qwxFyORV3v6jckVqJQG6ixoviXErlcl0PXGjWf1XmyfB+vfuifJe/VVtcTqj2u2o+pHGLHDUMIOD4iE+6LsjwpHr7KkitsDR6/UUTTLLnYlZnm9rF5wOMLV6JtTmU1nO152XhFWYCP7d+sj/Gl+G1YnZum66ayEo6Jn1qbokrR3KbWkdvWyYXjDTaLaam+YndqwuaDa2G1Vd+HFdZR5XiOLqdLB9AE+JWvsLggVBdqbKDN+J2rsUVZWSWNQEFr0PPEuZgpnwx26RIagccaty8Y9cLkhnnTsVIJo16Zi5t/SdFpRf7m2Gy4rF1nPNRzAEIDjiR+8yv4LuUg3jy0q+B43RaHfqnhVFq8JcG6qs816YAxdRroZYWTA4NhPlv0Nj5a8AqCA0Lh5+OPoR1HY0DbEQj0ZaqGx5daRWFQkN1hw9Ld/2Dh1lnIyc/R+YlXD7oNNwy5FyHqvAThRHHCo0/r169f9X+lJcC8LHX8eOWVV3DGGWcU6r85nigWd9LmkhRFPRRU43aFRr4g4/+ailVJCca7spFjpyh2wcN9BiHMUxTVP7pz30jY6SGKR3MssRNRrDqs278cE6fejcSMgzpNg4Pz+heJOq4O2B12OFwOOJ1O1I2Mw+PnvI5eLfpp0RSEE8UJF0V1wVdbUTQpLpjh+l1rsCk3s1hRpJXIijUBap558g71gsW+Cf+2DA7Dw43aHlVy7cF/ZmH23h1uD6i5aXMjnu89d2u8z7ZZcXPXPrhfiaKn1ceI0ncT9+Dbw/sLCgTQag3wPXL74TKMiC3JWmRwzvstu6N3eJ1CuxZODr+v/hYfLngVGblpR+X0EV6zHH+R8Hqk8BR6FFLz/Y359CRw5A3P+Z7rE+6jsNOH89VVZFwvdh6Dx3xOp2AXXF9Hrc+9MZ3IF42im+HuUU+6U0uM7QnCiULyFL3Ep0n78EnyHt0/eOSn7xYX3jDOj22oR7cwhfCgNQ9fJx/Qtx0uwz7Fexu1dpdi00u4+XrTGry0dIF6VbabAz9m/nt8wAhc3KFrobV5DI/u24zFWSn6pkNLlakgp0fXR5BxE0q12fBTajySbPlaOM31ebys19pZncsLzTqiUcDR/aDCyWHV3v8wfc13OJC6FxbbkehgfscMwElIP6C+Rx+EBobpqjAs/G26V612q8555HumYsSG19M5ie6fqw/y7RYkZyaoa9WhLdF6kQ0R5B+s5rnHUOT2U7OTdc1S7oPJ/YF6vnv/+fZ8pGQn6f5O7qNhdGPt7vW8HZgDHI8ffKfOgRQLUTgZiCh6CQrNk/u3YGl2mo7QNH/QQerpeHR0PT0OYl2PceY4uv64rcu11vEDYUrGDfWbqdai0K3gYFYGLp36DdLy3RVFSovFbkfnenF4YegYdIytb0x1Qwvw/K3LkOnkcUIdrx031m+O2xq0KrQHVr+ZnLADiepGxvPjcTLopnFgMG6Na4FhUfXVA4BQFaGImcE3gX5BWHdgBW7+9HxlifnhlNanKUvsCR2gw0LivK52H96BWz6/EHYljs3rtsEDZz6LLk16674+WojbEjbjkZ9uRmpOEiJD6uC5C99DpybdtMXJYJjN8WswaeZj2Jm0RV/TU675Ce3iOuprJsAvADuTt+LVP57ExgMrdc3SKdf8jN4t+sHmkfNKK9EUUkE4WUjyvpdgBOczTTvg5rjmGKUsrv4RdTA8qh5uV0JzvRIcT0EkXD7SKMNGIWJYPdM34ouE1DeOiMIVnXrAbrUZkaXF5CgqAfR8b1dWXoAS2RHNWqFDTD1jS0fYm59bIIi8aUX4+aNB4NFRfkMjY3F/ozY4p05DfS4jlBV7ed0mykLshJEiiFUaWnG0xNjotqTY6KdR9aU7nFYldP7wVxYh5wcpizAsONy4Hpx6GKnwoCg9SgXnU/QiQiJ1LVK9CWX5scQaxZbzKZoRanmKn/uKAsICw9V23ftnfdLwoEiEBCrLUP/j8QWp7bm3bzYRRKE2UmNFkXAsxItjm+Dpph0xsUlHPN64HS6JbaST8osSo24gY+s00P07RKdFMIVCNfeUI1zepSdGtmiD3Lw8OJnEb1cWgGdj/4/x2mGzw2l34Ow2nXFZ5176BlaUT5P36RsgsSsxbhEUgg4hxQ8OOzAiFg82bqMEvyOebNIBdyqRbyfl4GocR8ZNdOcHUhw9r8Oio1G4pe0IXNrTB+Re/sgEziu6jiAINVwUTdinGK2sQCbwlwTFapASnHzjTsJ+uzS7FfMzDyPDw6VEIoOCMWHwSCWOvRCotp2bnwe73ab7YFyqOWkdqve5+RYliHYtonf3G4y6oUeHsq/PzcTqnAzjHfT+mwSFKlGMNKYcDYNwmG8Z6ie2oSAIgjepFaJYWpoqsRsUEWME47iFcWFmqu6XLPpMTTfqI6edjpfHnIux7TojKjAQOcpyzMrNQWZuLuoEB+FsNX3ymRfgrv5D0DDiaJHLUILJ3EQOVUW43/oBQcoajBFXqCAIwklARNED1jm9MKYRgpUVRhGkhZmrBOujxH3YmHd0zdJQJYQjW7fDxBFn4puLr8XPl9+Iby4dj9+vugVfjrsWT6npY9p1QnTw0RGh3P7zB7fqEnPml0AHV5+wKJwVLbmGgiAIJwMRxSL0UqJ0Rp04WHVemJuD1lw8fWALtlqyjClHYIRenZBQtI6thz5NmmFQ89bo2agJ2sTU1dOLg/09j+/fjH+yDhfkHbIuK6NIr67XVL4UQRCEk4Tcf4vAfser6jbFkMi6Ou2BkkU36kFrvhKyLfg4ee9RI2yUhVS7FRP2bsac9CQdCMTtc2sM7BkQEYN2wRF6OaFm46v+MeKTo/T7+wUdFYDl4/JFgDGfeYoct9NzCaZtcDrnsxVND9Lz/QNUC3bPL7p99TbAN0DP43FwJAxBEPjbq6F5ihWFI1Rw5Il9VouufEP4QfEVk+rPiIpDt7BIBKgpx6pJynWYjJ/ncGBNbga+St6P9XmZOlDGnM+1z46JwwMN2+nXQu3A/OkVF5FMPH+axS1T0fnkeMcgCCcbSd6vQsxIT8R7h3YjRVl3FD7ztuFQUhbo44dhyppkjdROIRFoERSKYCNvzIRWIaNLF2enYntuthLDLASx9JYxn4E1/up9//A6eKFZZzHbBUEQiiCiWMWYl5GMLw8fwGYj0MYctokfGt2ozCsMUtPuaNgKl8Q2KRC8DLsNj+3fgiXZKbr+KqXQrGtKWMWmbkAQRkXXxe1xrYut0SoIglDbkYo2VYwhUXXxaON2GBfbGLH+gVrMaOFRwuhW5ViGLAlHq3JHfrZ7JcWMtESsyknT89lfaAoil+U22oWE486GLUUQBUEQqhAiiseBFh5H4L+3YRs82KitEslYRPn5I8dhV+Lm0NYi+wwjlPiF+hzJLrSoaYwypYCy5allcxwONAsKwRX1muLpJh0xJipOBFEQBKEKIe7TMpJsy8dWSzY25WVip1EGjv2E19VvVmhEjQRrHl6O34mdynqkpdgzLBrdQyOVKLJaTbh2uQqCIAjHRvoUqwmskXrYbtVBOEHKQmwSFFwQUWoSb7MgxWbV1mDDwGBdHEAQBEEoPdKnWE1gNCpLsnUMiUCr4NCjBJE0CgjW0alcRgRREASh6iOiKAiCIAgGIoqCIAiCYCCiKAiCIAgGIoqCUMkwlm3Pnj1YtWqVbitXrsTWrVvhcDiMJQRBqCqIKApCJULh++mnn3D55ZfjxhtvxC233IJrr70WY8aMwWeffQabrfAA1oIgnFxEFAWhEvn9998xYcIEjB8/HsuWLdON1uLDDz+s523ZsqVQ4W5BEE4ukqcoCJWE3W7XlmFaWhree+891KtXz5jjtiAPHTqEgIAA1K9fX0/j8t9//z02bdqkhbJHjx4YN26cHsGCFuW8efMQGRkJf39/zJo1C9nZ2ejYsaO2QjmNcNr06dOxevVq+Pn56e2MHj0agwcP1u8Jhfnnn3/Wrxs3bqz30bBhQ/0+KysLM2fORJcuXbB//369H76+6KKLEBUVpZcRhBOJ5CkKQg2BQlW3bl3s3LkT8fHxxlQ3FCgKkimIFKP77rsPU6dO1fO4LoV0ypQpWtisVqsWsosvvhiff/55gXXJ+R999BGcTidyc3Px4Ycf4tNPP9UCGxYWhuTkZHzzzTfIz8/X60ybNg3PP/+83l94eDjmzp2LF154QQs0SU9Px7PPPqtvRP/995/eBoVbhpYSag3qhyIIQiWxZMkSl7L4XO3atXOdc845rgsvvND1+OOPu5T1aCzh5s0333QNGzbMtXLlSpcSOD3tu+++09O2b9/uysvLc91xxx2uQYMGuRYtWlSwzGOPPeYaM2aMS4mca8WKFa6RI0e6vvjii4L5ysJ0bdiwwaUsU9e+fftcymp0Pf300/o9UYLtuuCCC1xKKPU+Dhw44BowYIDrpptuch08eFAvIwgnk/Hjx7uceaknrImlKAiVyCmnnKJdoi+++CLWr1+vrb3nnnsOAwcOxFNPPaXdnYmJiZg9ezbOPfdc7ao0rbIhQ4YgOjoaO3bs0NYjrUW6VDt37lywTGxsLFJSUpCUlITQ0FBtGbKv0rRMaXFyeV9fXyxdulS7cs8///yC9Vu1aoWuXbvqfk5aj5zOffXv37/ApSoItQkRRUGoRCgwykrUQvTvv/9CWX1Qlpt2g1IsOU09DCMjIwPKgkT79u3RsmVL3Xr16oV//vkHymLTokbBYt8iXaUm7JvkNLpO2b/4wAMPQFmn6NmzJ5o3bw5laWLjxo16WQowtxESElIgiqRp06Z6HgWTx0IkKlaorYgoCkIlQYExRYbQ8mrTpo0Wr7PPPltbecxfpACx7+7BBx/EwoULdSAMrbo1a9ZoEb3mmmt0n2BJmALHfV1yySXaImVUK/sPOe2hhx7SfYYUVjZPUSW0LmllMojHUywFoTYioigIlQRdmAyWoUgVZe/evcjLy0NcXJy21Dp16qQT+hnUwihVBuDwL8WS1qanuJYEl6HA0uUaExOjXa033HCDtgAzMzPRp08f7U6lJWlujxYmA4EY9ENhLM1+BKEmI6IoCJUEoztp6Y0cOVL3KTJNYt26dZgxYwbefPNN3a/IVAnCtIrNmzdj0qRJWLFihRbSxYsXY+LEidpipJhR8Ng8hYtRpuxrpHAuX75cR7Cyf5IuU65H9yv7B5s1a4a2bdti7NixOhr1zz//1Ptj5Cn7NFlYgJYit83t0S0rAinURiRPURAqmVdffVVXtbFYLPo9rb8777yzIAfRhOkQ7FekGNLFSVfnmWeeqafxZ/rOO+/ov6aAke+++w5z5szBE088ofMIX3rpJR1oQ4uT4sYcxSeffLJgeYrd119/rcWX0J1L4WWwDY+FrtSnn34ao0aN0gIq7lThZCODDAuCIAiCgSTvC4IgCMJJQkRREARBEAxEFAVBEATBQERREARBEAxEFAVBEATBQERREARBEAxEFAVBEATBQERREARBEAxEFAVBEATBQERREARBEAxEFAVBEATBQERREARBEAxEFAVBEATBQERREARBEAxEFAVBEATBQERREARBEAxEFAVBEATBQERREARBEAxEFAVBEATBQERREARBEAxEFAVBEATBQERREARBEAxEFAVBEATBQERREARBEDTA/wFaDW0AQNFXjwAAAABJRU5ErkJggg==;" vertex="1" parent="1">
          <mxGeometry x="626.003295454545" y="-478.0005113636365" width="453" height="451" as="geometry" />
        </mxCell>
        <mxCell id="srysTOEtSGEdbGvHmPmQ-5" value="&lt;span style=&quot;font-size: 18px;&quot;&gt;IoT&lt;br&gt;&lt;/span&gt;&lt;font style=&quot;font-size: 18px;&quot;&gt;Platform&lt;/font&gt;" style="rounded=1;whiteSpace=wrap;html=1;strokeWidth=3;" vertex="1" parent="1">
          <mxGeometry x="807" y="-314" width="119" height="120" as="geometry" />
        </mxCell>
      </root>
    </mxGraphModel>
  </diagram>
  <diagram id="UqRZKJg9nVMtcoBUBlzS" name="Stream Data">
    <mxGraphModel dx="1572" dy="970" grid="0" gridSize="10" guides="1" tooltips="1" connect="1" arrows="1" fold="1" page="1" pageScale="1" pageWidth="827" pageHeight="1169" math="0" shadow="0">
      <root>
        <mxCell id="8oB44qFDskglaHyZoLnl-0" />
        <mxCell id="8oB44qFDskglaHyZoLnl-1" parent="8oB44qFDskglaHyZoLnl-0" />
        <mxCell id="PLNnrXkkBE89U4-53l5H-0" value="" style="rounded=1;whiteSpace=wrap;html=1;dashed=1;strokeWidth=2;" parent="8oB44qFDskglaHyZoLnl-1" vertex="1">
          <mxGeometry x="220" y="100" width="360" height="178" as="geometry" />
        </mxCell>
        <mxCell id="LogSmDQ6V7ZjTUXdvUzH-37" value="" style="rounded=1;whiteSpace=wrap;html=1;strokeWidth=3;" parent="8oB44qFDskglaHyZoLnl-1" vertex="1">
          <mxGeometry x="550" y="325.25" width="100" height="60" as="geometry" />
        </mxCell>
        <mxCell id="LogSmDQ6V7ZjTUXdvUzH-38" value="" style="rounded=1;whiteSpace=wrap;html=1;strokeWidth=3;" parent="8oB44qFDskglaHyZoLnl-1" vertex="1">
          <mxGeometry x="540" y="340.25" width="100" height="60" as="geometry" />
        </mxCell>
        <mxCell id="LogSmDQ6V7ZjTUXdvUzH-36" value="" style="rounded=1;whiteSpace=wrap;html=1;strokeWidth=3;" parent="8oB44qFDskglaHyZoLnl-1" vertex="1">
          <mxGeometry x="530" y="355.25" width="100" height="60" as="geometry" />
        </mxCell>
        <mxCell id="LogSmDQ6V7ZjTUXdvUzH-0" style="edgeStyle=orthogonalEdgeStyle;shape=flexArrow;rounded=0;orthogonalLoop=1;jettySize=auto;html=1;entryX=0.5;entryY=1;entryDx=0;entryDy=0;startArrow=block;" parent="8oB44qFDskglaHyZoLnl-1" source="LogSmDQ6V7ZjTUXdvUzH-1" target="LogSmDQ6V7ZjTUXdvUzH-4" edge="1">
          <mxGeometry relative="1" as="geometry" />
        </mxCell>
        <mxCell id="LogSmDQ6V7ZjTUXdvUzH-1" value="&lt;font style=&quot;font-size: 18px&quot;&gt;&lt;b&gt;MQTT&lt;br&gt;Broker&lt;/b&gt;&lt;/font&gt;" style="rounded=1;whiteSpace=wrap;html=1;strokeWidth=3;" parent="8oB44qFDskglaHyZoLnl-1" vertex="1">
          <mxGeometry x="96.75" y="355.25" width="96.5" height="90" as="geometry" />
        </mxCell>
        <mxCell id="LogSmDQ6V7ZjTUXdvUzH-3" style="edgeStyle=orthogonalEdgeStyle;shape=flexArrow;rounded=0;orthogonalLoop=1;jettySize=auto;html=1;startArrow=block;" parent="8oB44qFDskglaHyZoLnl-1" edge="1">
          <mxGeometry relative="1" as="geometry">
            <Array as="points">
              <mxPoint x="535.44" y="158" />
              <mxPoint x="535.44" y="158" />
            </Array>
            <mxPoint x="220" y="158" as="sourcePoint" />
            <mxPoint x="575.7901401365434" y="158" as="targetPoint" />
          </mxGeometry>
        </mxCell>
        <mxCell id="LogSmDQ6V7ZjTUXdvUzH-4" value="" style="rounded=1;whiteSpace=wrap;html=1;arcSize=11;strokeWidth=4;" parent="8oB44qFDskglaHyZoLnl-1" vertex="1">
          <mxGeometry x="70" y="110" width="150" height="100" as="geometry" />
        </mxCell>
        <mxCell id="LogSmDQ6V7ZjTUXdvUzH-5" value="&lt;font style=&quot;font-size: 18px&quot;&gt;&lt;b&gt;MQTT&lt;/b&gt;&lt;/font&gt;" style="text;html=1;resizable=0;autosize=1;align=center;verticalAlign=middle;points=[];fillColor=none;strokeColor=none;rounded=0;" parent="8oB44qFDskglaHyZoLnl-1" vertex="1">
          <mxGeometry x="330" y="415.25" width="70" height="20" as="geometry" />
        </mxCell>
        <mxCell id="LogSmDQ6V7ZjTUXdvUzH-9" value="" style="outlineConnect=0;fontColor=#232F3E;gradientColor=none;fillColor=#232F3E;strokeColor=none;dashed=0;verticalLabelPosition=bottom;verticalAlign=top;align=center;html=1;fontSize=12;fontStyle=0;aspect=fixed;pointerEvents=1;shape=mxgraph.aws4.mobile_client;" parent="8oB44qFDskglaHyZoLnl-1" vertex="1">
          <mxGeometry x="575.44" y="100" width="79.11" height="150.5" as="geometry" />
        </mxCell>
        <mxCell id="LogSmDQ6V7ZjTUXdvUzH-11" value="&lt;font style=&quot;font-size: 18px&quot;&gt;&lt;b&gt;Socket.IO&lt;/b&gt;&lt;/font&gt;" style="text;html=1;resizable=0;autosize=1;align=center;verticalAlign=middle;points=[];fillColor=none;strokeColor=none;rounded=0;" parent="8oB44qFDskglaHyZoLnl-1" vertex="1">
          <mxGeometry x="465" y="238.5" width="100" height="20" as="geometry" />
        </mxCell>
        <mxCell id="LogSmDQ6V7ZjTUXdvUzH-16" value="&lt;span style=&quot;font-size: 18px&quot;&gt;&lt;b&gt;Controller&lt;/b&gt;&lt;/span&gt;" style="rounded=1;whiteSpace=wrap;html=1;strokeWidth=3;" parent="8oB44qFDskglaHyZoLnl-1" vertex="1">
          <mxGeometry x="520" y="370.25" width="90" height="60" as="geometry" />
        </mxCell>
        <mxCell id="LogSmDQ6V7ZjTUXdvUzH-17" value="&lt;font style=&quot;font-size: 18px&quot;&gt;&lt;b&gt;Web&lt;br&gt;App&lt;/b&gt;&lt;/font&gt;" style="text;html=1;resizable=0;autosize=1;align=center;verticalAlign=middle;points=[];fillColor=none;strokeColor=none;rounded=0;" parent="8oB44qFDskglaHyZoLnl-1" vertex="1">
          <mxGeometry x="589.99" y="140" width="50" height="40" as="geometry" />
        </mxCell>
        <mxCell id="LogSmDQ6V7ZjTUXdvUzH-25" style="edgeStyle=orthogonalEdgeStyle;shape=flexArrow;rounded=0;orthogonalLoop=1;jettySize=auto;html=1;entryX=0;entryY=0.5;entryDx=0;entryDy=0;startArrow=block;exitX=1;exitY=0.5;exitDx=0;exitDy=0;" parent="8oB44qFDskglaHyZoLnl-1" source="LogSmDQ6V7ZjTUXdvUzH-1" target="LogSmDQ6V7ZjTUXdvUzH-16" edge="1">
          <mxGeometry relative="1" as="geometry">
            <mxPoint x="133.5" y="175" as="sourcePoint" />
            <mxPoint x="370" y="175" as="targetPoint" />
          </mxGeometry>
        </mxCell>
        <mxCell id="LogSmDQ6V7ZjTUXdvUzH-29" value="&lt;font style=&quot;font-size: 18px&quot;&gt;&lt;b&gt;MQTT&lt;/b&gt;&lt;/font&gt;" style="text;html=1;resizable=0;autosize=1;align=center;verticalAlign=middle;points=[];fillColor=none;strokeColor=none;rounded=0;rotation=-90;" parent="8oB44qFDskglaHyZoLnl-1" vertex="1">
          <mxGeometry x="80" y="270" width="70" height="20" as="geometry" />
        </mxCell>
        <mxCell id="LogSmDQ6V7ZjTUXdvUzH-30" value="&lt;font style=&quot;font-size: 18px&quot;&gt;/controller_id/temp/sensor_id&lt;/font&gt;" style="text;html=1;align=center;verticalAlign=middle;resizable=0;points=[];autosize=1;strokeColor=none;" parent="8oB44qFDskglaHyZoLnl-1" vertex="1">
          <mxGeometry x="240" y="325.25" width="250" height="20" as="geometry" />
        </mxCell>
        <mxCell id="LogSmDQ6V7ZjTUXdvUzH-31" value="&lt;font style=&quot;font-size: 18px&quot;&gt;/controller_id/pump/status&lt;/font&gt;" style="text;html=1;align=center;verticalAlign=middle;resizable=0;points=[];autosize=1;strokeColor=none;" parent="8oB44qFDskglaHyZoLnl-1" vertex="1">
          <mxGeometry x="255" y="360.25" width="220" height="20" as="geometry" />
        </mxCell>
        <mxCell id="LogSmDQ6V7ZjTUXdvUzH-33" value="&lt;span style=&quot;font-size: 18px&quot;&gt;{data_type: measurement,&lt;br&gt;parammeter: temp,&lt;br&gt;payload: 32}&lt;/span&gt;" style="text;html=1;align=left;verticalAlign=middle;resizable=0;points=[];autosize=1;strokeColor=none;" parent="8oB44qFDskglaHyZoLnl-1" vertex="1">
          <mxGeometry x="290" y="188.5" width="230" height="50" as="geometry" />
        </mxCell>
        <mxCell id="LogSmDQ6V7ZjTUXdvUzH-34" value="&lt;font style=&quot;font-size: 18px&quot;&gt;&lt;b&gt;Web&lt;br&gt;Server&lt;/b&gt;&lt;/font&gt;" style="text;html=1;resizable=0;autosize=1;align=center;verticalAlign=middle;points=[];fillColor=none;strokeColor=none;rounded=0;" parent="8oB44qFDskglaHyZoLnl-1" vertex="1">
          <mxGeometry x="109.99999999999994" y="140" width="70" height="40" as="geometry" />
        </mxCell>
        <mxCell id="I5iI_BgMYR58L2mKA5M--0" value="&lt;font style=&quot;font-size: 24px&quot;&gt;Stream Data&lt;/font&gt;" style="text;html=1;resizable=0;points=[];autosize=1;align=left;verticalAlign=top;spacingTop=-4;fontSize=30;fontStyle=1;labelBackgroundColor=none;" parent="8oB44qFDskglaHyZoLnl-1" vertex="1">
          <mxGeometry x="11" y="9.5" width="160" height="40" as="geometry" />
        </mxCell>
        <mxCell id="I5iI_BgMYR58L2mKA5M--3" value="&lt;span style=&quot;font-size: 18px&quot;&gt;event = controller_id&lt;/span&gt;" style="text;html=1;align=center;verticalAlign=middle;resizable=0;points=[];autosize=1;strokeColor=none;" parent="8oB44qFDskglaHyZoLnl-1" vertex="1">
          <mxGeometry x="300.44" y="118" width="180" height="20" as="geometry" />
        </mxCell>
        <mxCell id="kARz2ksguTjOfBrHwYBv-0" value="&lt;span style=&quot;font-size: 18px&quot;&gt;&lt;b&gt;Controller&lt;/b&gt;&lt;/span&gt;" style="rounded=1;whiteSpace=wrap;html=1;strokeWidth=3;" parent="8oB44qFDskglaHyZoLnl-1" vertex="1">
          <mxGeometry x="520" y="370.25" width="100" height="60" as="geometry" />
        </mxCell>
      </root>
    </mxGraphModel>
  </diagram>
  <diagram id="ZGsFV8JHluJutlSFdj1_" name="Code Structure">
    <mxGraphModel dx="1572" dy="970" grid="1" gridSize="10" guides="1" tooltips="1" connect="1" arrows="1" fold="1" page="1" pageScale="1" pageWidth="827" pageHeight="1169" math="0" shadow="0">
      <root>
        <mxCell id="uOJrLQGjjliUN0jJ-wv1-0" />
        <mxCell id="uOJrLQGjjliUN0jJ-wv1-1" parent="uOJrLQGjjliUN0jJ-wv1-0" />
        <mxCell id="uOJrLQGjjliUN0jJ-wv1-2" value="&lt;font style=&quot;font-size: 14px&quot;&gt;Web&lt;br&gt;App&lt;/font&gt;" style="ellipse;whiteSpace=wrap;html=1;" parent="uOJrLQGjjliUN0jJ-wv1-1" vertex="1">
          <mxGeometry x="350" y="270" width="90" height="60" as="geometry" />
        </mxCell>
        <mxCell id="uOJrLQGjjliUN0jJ-wv1-3" value="&lt;font style=&quot;font-size: 14px&quot;&gt;Web&lt;br&gt;App&lt;/font&gt;" style="ellipse;whiteSpace=wrap;html=1;" parent="uOJrLQGjjliUN0jJ-wv1-1" vertex="1">
          <mxGeometry x="470" y="180" width="90" height="60" as="geometry" />
        </mxCell>
        <mxCell id="uOJrLQGjjliUN0jJ-wv1-4" value="&lt;font style=&quot;font-size: 14px&quot;&gt;Web&lt;br&gt;App&lt;/font&gt;" style="ellipse;whiteSpace=wrap;html=1;" parent="uOJrLQGjjliUN0jJ-wv1-1" vertex="1">
          <mxGeometry x="220" y="170" width="90" height="60" as="geometry" />
        </mxCell>
      </root>
    </mxGraphModel>
  </diagram>
</mxfile>
